<?xml version="1.0" encoding="UTF-8"?>
<svg id="Layer_1" xmlns="http://www.w3.org/2000/svg" version="1.1" viewBox="0 0 66.86 66.86">
  <!-- Generator: Adobe Illustrator 30.4.0, SVG Export Plug-In . SVG Version: 2.1.4 Build 226)  -->
  <path d="M50.36,33.43c0,9.34-7.6,16.93-16.94,16.93s-16.94-7.6-16.94-16.93,7.6-16.93,16.94-16.93,16.94,7.6,16.94,16.93ZM45.59,33.43c0-6.71-5.46-12.17-12.17-12.17s-12.16,5.46-12.16,12.17,5.46,12.17,12.16,12.17,12.17-5.46,12.17-12.17ZM38.61,33.43c0,2.86-2.33,5.19-5.19,5.19s-5.19-2.33-5.19-5.19,2.33-5.19,5.19-5.19,5.19,2.33,5.19,5.19Z"/>
</svg>