<?xml version="1.0" encoding="UTF-8"?>
<svg id="Layer_1" xmlns="http://www.w3.org/2000/svg" version="1.1" viewBox="0 0 66.86 66.86">
  <!-- Generator: Adobe Illustrator 30.4.0, SVG Export Plug-In . SVG Version: 2.1.4 Build 226)  -->
  <path d="M20.28,36.64c-1,1.06-2.67,1.1-3.72.1-1.05-1-1.1-2.66-.1-3.71l15.19-16.03c.5-.52,1.19-.82,1.91-.82.7.12,1.43.3,1.92.84l14.92,16.03c.99,1.06.93,2.73-.13,3.72-.5.47-1.15.7-1.79.7-.7,0-1.41-.28-1.92-.84l-13.01-13.98-13.26,14h-.01ZM51.11,47.63c0,1.45-1.18,2.63-2.63,2.63h-30.11c-1.45,0-2.63-1.18-2.63-2.63s1.18-2.63,2.63-2.63h30.11c1.45,0,2.63,1.18,2.63,2.63Z"/>
</svg>