<?xml version="1.0" encoding="UTF-8"?>
<svg id="Layer_1" xmlns="http://www.w3.org/2000/svg" version="1.1" viewBox="0 0 67.86 67.86">
  <!-- Generator: Adobe Illustrator 30.4.0, SVG Export Plug-In . SVG Version: 2.1.4 Build 226)  -->
  <path d="M51.95,15.91c1.03,1.03,1.03,2.69,0,3.72l-4.35,4.35c2.04,2.8,3.26,6.23,3.26,9.96,0,9.34-7.6,16.93-16.94,16.93-3.72,0-7.16-1.22-9.96-3.27l-4.35,4.35c-.51.51-1.19.77-1.86.77s-1.35-.26-1.86-.77c-1.03-1.03-1.03-2.69,0-3.72l4.35-4.35c-2.04-2.8-3.27-6.23-3.27-9.96,0-9.34,7.6-16.93,16.94-16.93,3.72,0,7.15,1.22,9.95,3.26l4.35-4.35c1.03-1.03,2.69-1.03,3.72,0h.02Z"/>
</svg>