<?xml version="1.0" encoding="UTF-8"?>
<svg id="Layer_1" xmlns="http://www.w3.org/2000/svg" version="1.1" viewBox="0 0 66.86 66.86">
  <!-- Generator: Adobe Illustrator 30.4.0, SVG Export Plug-In . SVG Version: 2.1.4 Build 226)  -->
  <path d="M50.41,33.25c.99,1.06.93,2.73-.13,3.72-.51.47-1.15.7-1.79.7-.7,0-1.41-.28-1.92-.84l-13.01-13.98-13.26,14c-1,1.06-2.67,1.1-3.72.1-1.05-1-1.1-2.66-.1-3.71l15.19-16.03c.5-.52,1.19-.82,1.91-.82h0c.73,0,1.42.3,1.91.84l14.92,16.03h0ZM38.62,45.29c0,2.86-2.33,5.19-5.19,5.19s-5.19-2.33-5.19-5.19,2.33-5.19,5.19-5.19,5.19,2.33,5.19,5.19Z"/>
</svg>