<?xml version="1.0" encoding="UTF-8"?>
<svg id="Layer_1" xmlns="http://www.w3.org/2000/svg" version="1.1" viewBox="0 0 66.86 66.86">
  <!-- Generator: Adobe Illustrator 30.4.0, SVG Export Plug-In . SVG Version: 2.1.4 Build 226)  -->
  <path d="M51.79,18.72c-.08.11-.18.24-.29.34l-4.39,4.39v.03c2.05,2.79,3.26,6.23,3.26,9.94,0,4.68-1.89,8.91-4.97,11.96-3.05,3.08-7.28,4.99-11.96,4.99-.95,0-1.84-.08-2.73-.24-1.31-.21-2.6-.58-3.81-1.1-1.21-.53-2.34-1.18-3.39-1.95h-.03l-4.34,4.36-.05.05c-.53.47-1.16.71-1.81.71-.5,0-1-.16-1.45-.42-.29-.18-.55-.45-.76-.74-.66-1.03-.55-2.37.29-3.29l4.42-4.39v-.03c-1.55-2.08-2.6-4.55-3.05-7.2-.16-.89-.24-1.81-.24-2.73,0-3.5,1.08-6.76,2.92-9.46.32-.45.63-.89.97-1.29.34-.42.71-.84,1.1-1.21,3.08-3.08,7.28-4.97,11.96-4.97.47,0,.92.03,1.39.05.92.08,1.79.24,2.66.45.45.1.87.21,1.29.37.84.29,1.63.63,2.39,1.03h.03c.76.42,1.5.87,2.18,1.37h.03l4.39-4.39c.11-.11.24-.21.37-.29,1-.66,2.39-.55,3.29.34s1,2.29.34,3.31h0ZM39.96,23.19c-1.89-1.21-4.13-1.92-6.52-1.92-2.94,0-5.62,1.05-7.73,2.76-2.71,2.23-4.44,5.62-4.44,9.38,0,.97.11,1.89.34,2.79.11.5.26,1,.45,1.47.21.53.45,1.05.71,1.52.13.26.26.5.42.74,0,0,16.77-16.74,16.77-16.74ZM45.61,33.42c0-2.39-.71-4.65-1.92-6.55l-16.77,16.8c1.89,1.21,4.1,1.92,6.52,1.92,6.7,0,12.17-5.47,12.17-12.17Z"/>
</svg>