<?xml version="1.0" encoding="UTF-8"?>
<svg id="Layer_1" xmlns="http://www.w3.org/2000/svg" version="1.1" viewBox="0 0 829.76 54.18">
  <!-- Generator: Adobe Illustrator 30.3.0, SVG Export Plug-In . SVG Version: 2.1.1 Build 104)  -->
  <defs>
    <style>
      .st0 {
        fill: #010101;
      }
    </style>
  </defs>
  <path class="st0" d="M15.73,28.5c0,4.34-3.53,7.87-7.87,7.87s-7.87-3.53-7.87-7.87,3.53-7.87,7.87-7.87,7.87,3.53,7.87,7.87ZM10.44,28.5c0-1.42-1.15-2.58-2.58-2.58s-2.57,1.16-2.57,2.58,1.15,2.58,2.57,2.58,2.58-1.16,2.58-2.58Z"/>
  <path class="st0" d="M110.88,30.57l-45.78,2.52c-5.46.17-5.48-8.03,0-7.88h45.78c3.49.01,3.51,5.34,0,5.36Z"/>
  <path class="st0" d="M155.2,20.74c3.52-3.79,9.31,1.55,5.82,5.37-.11.11-.23.23-.35.33l-15.87,13.49-.25.21c-2.5,2.14-5.93-1.45-3.69-3.85l14.02-15.2.32-.35h0ZM188.49,39.92l-24.74-23.11c-3.96-3.92,2.18-9.6,5.8-5.35l22.89,24.82c2.35,2.59-1.55,6.19-3.94,3.64Z"/>
  <path class="st0" d="M267.26,1.18c3.72-3.68,9.31,2.07,5.47,5.68,0,0-2.61,2.43-6.63,6.15,3.19,4.24,5.1,9.49,5.1,15.2,0,14-11.4,25.4-25.4,25.4-6.37,0-12.19-2.38-16.66-6.27-3.93,3.65-6.48,6.02-6.48,6.02-2.48,2.45-6.27-1.29-3.79-3.79.02-.02,2.55-2.55,6.43-6.43-3.06-4.2-4.9-9.35-4.9-14.93,0-14,11.39-25.4,25.4-25.4,5.58,0,10.73,1.83,14.93,4.89,3.93-3.93,6.51-6.51,6.53-6.53h0Z"/>
  <path class="st0" d="M350.83,28.13c0,14-11.39,25.4-25.4,25.4s-25.4-11.39-25.4-25.4,11.39-25.4,25.4-25.4,25.4,11.39,25.4,25.4ZM343.68,28.14c0-10.06-8.19-18.25-18.25-18.25s-18.24,8.19-18.24,18.25,8.18,18.25,18.24,18.25,18.25-8.19,18.25-18.25Z"/>
  <path class="st0" d="M428.45,45.35l-45.78,2.52c-5.46.17-5.48-8.03,0-7.88h45.78c3.49.01,3.51,5.34,0,5.36ZM397.69,17.95c0-4.34,3.53-7.87,7.87-7.87s7.87,3.53,7.87,7.87-3.53,7.87-7.87,7.87-7.87-3.53-7.87-7.87ZM402.99,17.95c0,1.42,1.16,2.58,2.58,2.58s2.57-1.16,2.57-2.58-1.16-2.58-2.57-2.58-2.58,1.16-2.58,2.58Z"/>
  <path class="st0" d="M507.34,50.31l-45.78,2.52c-5.46.17-5.48-8.03,0-7.88h45.78c3.49.02,3.51,5.34,0,5.36ZM458.66,27.37l14.02-15.2c3.41-4.33,9.76.84,6.14,5.02-.11.11-.23.23-.35.33l-15.87,13.49-.25.21c-2.5,2.14-5.93-1.45-3.69-3.85ZM506.29,31.01l-24.74-23.11c-3.96-3.92,2.18-9.6,5.8-5.35l22.89,24.82c2.35,2.59-1.55,6.19-3.94,3.64Z"/>
  <path class="st0" d="M586.73,50.31l-45.78,2.52c-5.46.17-5.48-8.03,0-7.88h45.78c3.49.02,3.51,5.34,0,5.36ZM538.05,27.37l14.02-15.2c3.65-4.56,10.1,1.39,5.8,5.35l-15.87,13.49-.25.21c-2.5,2.14-5.93-1.45-3.69-3.85ZM555.98,31.52c0-4.34,3.53-7.87,7.86-7.87s7.87,3.53,7.87,7.87-3.53,7.87-7.87,7.87-7.86-3.53-7.86-7.87ZM585.69,31.01l-24.75-23.11c-3.96-3.92,2.18-9.6,5.8-5.35l22.89,24.82c2.36,2.59-1.55,6.19-3.94,3.64ZM561.27,31.52c0,1.42,1.15,2.58,2.57,2.58s2.58-1.16,2.58-2.58-1.16-2.58-2.58-2.58-2.57,1.16-2.57,2.58Z"/>
  <path class="st0" d="M637.02,17.45l-15.87,13.49-.25.21c-2.5,2.14-5.93-1.45-3.69-3.85l14.02-15.2c3.65-4.56,10.1,1.39,5.8,5.35ZM650.86,44.98c0,4.33-3.53,7.86-7.87,7.86s-7.87-3.52-7.87-7.86,3.53-7.87,7.87-7.87,7.87,3.54,7.87,7.87ZM664.84,30.94l-24.74-23.11c-3.96-3.92,2.18-9.6,5.8-5.35l22.89,24.82c2.35,2.59-1.55,6.19-3.94,3.63ZM645.57,44.98c0-1.42-1.16-2.58-2.58-2.58s-2.58,1.16-2.58,2.58,1.16,2.57,2.58,2.57,2.58-1.15,2.58-2.57Z"/>
  <path class="st0" d="M747.79,28.13c0,14-11.39,25.4-25.4,25.4s-25.4-11.39-25.4-25.4,11.39-25.4,25.4-25.4,25.4,11.39,25.4,25.4ZM740.63,28.14c0-10.06-8.19-18.25-18.25-18.25s-18.24,8.19-18.24,18.25,8.18,18.25,18.24,18.25,18.25-8.19,18.25-18.25ZM730.26,28.14c0,4.34-3.53,7.87-7.87,7.87s-7.87-3.53-7.87-7.87,3.53-7.87,7.87-7.87,7.87,3.53,7.87,7.87ZM724.96,28.14c0-1.42-1.16-2.58-2.58-2.58s-2.57,1.16-2.57,2.58,1.16,2.58,2.57,2.58,2.58-1.16,2.58-2.58Z"/>
  <path class="st0" d="M823,1.2c3.72-3.68,9.31,2.07,5.47,5.68,0,0-2.61,2.43-6.63,6.16,3.19,4.24,5.1,9.49,5.1,15.2,0,14-11.39,25.4-25.4,25.4-6.37,0-12.19-2.38-16.66-6.27-3.93,3.65-6.48,6.02-6.48,6.02-2.48,2.45-6.27-1.29-3.79-3.79.02-.02,2.56-2.55,6.43-6.43-3.06-4.2-4.9-9.35-4.9-14.93,0-14.01,11.39-25.4,25.4-25.4,5.58,0,10.73,1.83,14.93,4.89,3.93-3.93,6.51-6.51,6.53-6.53h0ZM801.53,9.98c-10.06,0-18.24,8.19-18.24,18.25,0,3.6,1.09,6.95,2.89,9.78,7.61-7.61,17.51-17.51,25.13-25.13-2.83-1.81-6.17-2.89-9.78-2.89h0ZM819.78,28.23c0-3.82-1.2-7.37-3.21-10.31-7.97,7.4-18.42,17.1-26.37,24.49,3.12,2.5,7.03,4.06,11.33,4.06,10.06,0,18.25-8.19,18.25-18.25h0Z"/>
</svg>