<?xml version="1.0" encoding="UTF-8"?>
<svg id="Layer_1" xmlns="http://www.w3.org/2000/svg" version="1.1" viewBox="0 0 831.74 53.52">
  <!-- Generator: Adobe Illustrator 30.3.0, SVG Export Plug-In . SVG Version: 2.1.1 Build 104)  -->
  <defs>
    <style>
      .st0 {
        fill: #010101;
      }
    </style>
  </defs>
  <path class="st0" d="M15.49,26.33c.95.27,1.26.97.87,1.85-.13.27-.15.58-.33.81-.18.25-.52.4-.66.62-.13.2-.17.51-.09.75.17.59.33,1.28-.09,1.8-.25.31-.68.45-1.04.62-.13.06-.32.13-.35.24-.16.77-.63,1.47-1.47,1.58-.32.03-.65,0-.95-.11-.48-.21-.72-.04-.97.3-.43.63-1.18.62-1.81.57-.55-.07-.61-.69-.62-1.27l-.1-1.88c0-.14,0-.37.04-.42.24-.35.22-1.22.5-1.09.06.02.05-.37.03-.61-.04-.38.03-.3.19-.06.29.44.6.6.84.57.06,0,.18.07.24.05.11-.04.26-.06.3-.19.06-.15,0-.4.02-.54.03-.09.11-.14.23-.17.23-.06.54-.12.73-.28.09-.07-.09-.25-.15-.38-.03-.06-.1-.12-.08-.16.09-.24.25-.49.26-.77.02-.11-.1-.22-.15-.32,0,0,.08-.04.13-.06h.09s0-.04-.03-.05c-.45-.12-.54-.19-.11-.47.09-.06.02-.16-.07-.19-.51-.19-.5-.49-.63-.84-.03-.1-.12-.17-.2-.23-.24-.16-.49-.3-.76-.36-.34-.09-.68-.07-.98-.06-.09,0-.16-.22-.26-.22-.16-.04-.31.04-.46.06-.11.04-.21.11-.34.04-.46-.26-.75.22-.75.71-.01.39-.06.62-.08.85,0,.07-.27-.02-.43,0-.07,0-.14.02-.16.06-.13.2-.22.42-.28.66-.07.27-.18.58-.1.86.07.26.36.41.51.6.1.14.08.41.25.52.2.09.52-.03.69-.02.16.03.26.17.4.25l.02.07c.21.19.31.93.56,2.03.03.11-.05.34-.09.51-.08.39-.18.78-.3,1.16-.04.12-.1.24-.15.35l-.05-.27s-.03-.04-.04-.06c-.03.07-.08.14-.08.21-.01.41-.18.43-.41.48-.58.14-1.24.32-1.88.22-.41-.06-.85-.3-1.06-.65-.45-.79-1.18-.99-1.86-1.53-.5-.39-.67-1.07-.98-1.61-.16-.32-.58-.54-.72-.9C.06,29.48,0,28.93,0,28.39c0-.21.16-.41.24-.61.39-1,.28-2.14.95-3.02.17-.23.19-.59.22-.92.12-1.2.97-2.24,2.18-2.46.27-.05.6.18.88.26.13.04.31,0,.38-.08.11-.14.13-.44.28-.54.24-.18.53-.29.82-.39.66-.26,1.49-.1,1.98-.52.78-.59,1.19.39,1.79.27.21-.03.42.04.62.12.49.18.93.46,1.39.69.47.24,1.02.38,1.45.73.34.27.51.7.76,1.04.32.46.65.92.88,1.43.18.44.35.9.32,1.36-.03.34-.05.5.37.61h0Z"/>
  <path class="st0" d="M108.82,23.85c.97.15,1.6,1.16,2.03,2.6.04.14-.09.45-.14.69-.11.52-.22,1.04-.35,1.56-.04.17-.1.32-.15.48-.03-.12-.06-.24-.09-.36-.01-.03-.04-.04-.06-.06-.02.1-.07.21-.06.3.04.55-.15.61-.39.73-.62.31-1.21.79-1.83,1.03-.4.15-.87.17-1.25-.07-.84-.52-1.6-.04-2.4.25-.6.21-1.23-.03-1.85.06-.35.05-.67.46-1.03.53-.49.1-.99.08-1.49.05-.19-.01-.38-.24-.57-.33-1.01-.48-2.05.03-3.07-.27-.28-.08-.6.15-.88.35-1.02.71-2.05.88-3.09.27-.23-.13-.39-.63-.6-.9-.1-.12-.27-.19-.38-.12-.17.11-.3.45-.47.52-.28.12-.57.11-.86.15-.65.09-1.44-.2-1.9.36-.67.81-1.12-.42-1.67-.08-.18.11-.39.07-.58.07-.48-.02-.96-.13-1.43-.1-.49.04-.98.3-1.47.32-.39.02-.78-.21-1.17-.27-.52-.07-1.04-.04-1.56-.1-.43-.06-.89-.08-1.3-.31-.29-.17-.46-.24-.64.26-.44,1.16-.97,1.41-1.74.92-.24-.16-.51-.18-.73-.37-.23-.19-.42-.62-.66-.74-.21-.11-.51-.06-.71.13-.48.46-.96,1.01-1.52.86-.34-.09-.65-.47-.97-.7-.12-.09-.28-.24-.38-.17-.66.5-1.32.77-2.01.26-.26-.19-.52-.45-.72-.78-.33-.53-.66-.49-1.01-.17-.62.56-1.26.35-1.89.19-.52-.14-.59-.96-.59-1.74-.04-.83-.09-1.67-.12-2.51,0-.19.02-.49.08-.56.45-.45.66-1.62,1.36-1.38.14.04.37-.47.51-.78.24-.51.47-.35.68,0,.4.67.88,1.04,1.42,1.19.13.04.26.2.39.23.26.05.54.13.79.05.32-.1.62-.39.94-.5.22-.07.46,0,.68.09.47.19.93.52,1.4.64.21.05.44-.25.65-.39.1-.06.2-.18.3-.18.65.05,1.29.16,1.93.18.25.01.51-.13.76-.19.03,0,.08.11.11.18,0,.02-.01.08-.02.12.04-.01.09,0,.12-.04.37-.56.72-.69,1.12-.04.08.13.32.07.46-.03.82-.57,1.66-.35,2.49-.22.24.04.5.03.74,0,.69-.07,1.38-.16,2.06-.26.88-.13,1.75-.3,2.63-.39.26-.03.53.24.8.26.42.02.84-.06,1.26-.07.31-.01.65-.11.95.03,1.01.48,1.94.08,2.91-.43.76-.4,1.56-.58,2.35-.73.26-.05.55.33.83.49.13.08.27.17.41.17.75.05,1.5.07,2.26.12.86.06,1.72.2,2.57.18.77-.02,1.53-.28,2.3-.32.59-.03,1.18.23,1.77.16.6-.07,1.19-.49,1.79-.59.58-.09,1.18.04,1.77.08.05,0,.1.07.15.08v.02Z"/>
  <path class="st0" d="M191.52,34.66c.86,1.15.75,2.52.12,3.97-.06.15-.42.21-.64.32l-1.5.69c-.16.07-.34.11-.51.17l.17-.35s0-.07,0-.11c-.1.04-.22.06-.28.13-.36.42-.59.25-.92.07-.84-.47-1.79-.78-2.59-1.29-.51-.33-.99-.83-1.2-1.4-.46-1.27-1.57-1.75-2.58-2.43-.75-.5-1.21-1.36-1.89-1.96-.39-.34-1.01-.42-1.42-.75-.57-.46-1.06-1.02-1.53-1.58-.18-.22-.2-.57-.32-.84-.65-1.43-2.07-2.2-2.87-3.51-.22-.36-.71-.54-1.13-.71-1.55-.62-2.7-1.62-3.29-3.17-.13-.34.08-.85.06-1.26,0-.19-.13-.42-.29-.49-.25-.11-.62-.02-.85-.16-.05-.03-.08-.08-.13-.11-.48.48-1.02.91-1.45,1.44-.46.56-.76,1.27-1.24,1.81-.37.43-.93.7-1.36,1.09-.58.58-1.06,1.05-1.63,1.62-.48.44-.95.92-1.52,1.2-.42.21-.63.33-.45.87.42,1.26.07,2.02-1.06,2.51-.35.15-.64.43-1,.54-.38.12-.88.04-1.21.21-.3.16-.55.52-.61.86-.14.84-.22,1.72-.89,2.24-.4.3-.99.38-1.49.58-.19.07-.46.15-.5.3-.29,1.05-.75,1.96-1.82,2.35-.4.15-.85.25-1.29.25-.72,0-1.02.38-1.13.97-.2,1.05-1,1.61-1.75,2.17-.63.48-1.3,0-1.87-.54l-1.96-1.57c-.15-.12-.35-.35-.33-.47.11-.8-.53-1.81.35-2.42.18-.12.03-.71-.06-1.08-.13-.61.21-.75.68-.74.9.02,1.64-.25,2.29-.73.16-.12.41-.15.56-.27.3-.25.63-.5.82-.83.25-.41.33-.94.58-1.36.17-.28.46-.5.75-.68.62-.38,1.31-.66,1.88-1.09.24-.18.25-.64.37-.97.05-.15.06-.34.17-.45.67-.65,1.4-1.34,2.06-1.97.26-.26.41-.64.62-.95.03-.04.16-.01.24,0,.03,0,.05.06.08.1.03-.05.1-.1.1-.16-.04-.78.21-1.25,1.09-1.24.18,0,.38-.3.44-.52.4-1.27,1.4-2.04,2.33-2.85.27-.24.52-.52.74-.8.62-.79,1.24-1.59,1.88-2.41.78-1.04,1.53-2.1,2.34-3.11.24-.3.71-.41.99-.69l.44-.49c1.24-1.37,3.36-1.47,4.73-.23l.07.06.17.17c.28.28.58.57.86.84.32.34.73.63.92,1.05.65,1.42,1.89,2.16,3.23,2.86,1.05.55,1.99,1.29,2.89,2.05.3.25.31.82.47,1.23.07.2.15.41.28.56.73.85,1.44,1.68,2.17,2.52.82.97,1.57,2,2.44,2.91.79.82,1.75,1.48,2.54,2.28.61.61,1.01,1.44,1.65,2.02.66.6,1.55.95,2.22,1.54.65.57,1.14,1.31,1.7,1.97.05.05.05.16.09.22h0Z"/>
  <path class="st0" d="M273.46,1.93c.26.53.17,1.57.12,1.65-.05.27-.18.58-.28.77h0s-.06.14-.06.14l-.07.17c-.47,1.22-1.25,2.07-2,2.76-.72.6-1.35.92-1.86,1.65-.32.46-.79.86-1.22,1.25-.57.51-1.1,1.05-1.66,1.57.54.67,1.08,1.34,1.36,2.1,1.36,3.2,2.76,6.01,3.77,9.29.77,2.56.99,5.48.6,8.29-.11.94-.76,1.85-1.15,2.75-.23.42-.47.85-.63,1.3-.96,2.45-2.2,4.81-3.88,6.84-1.89,2.33-4.2,4.23-6.69,5.84-2.21,1.48-4.63,2.72-7.23,3.43-1.99.58-4.11.49-6.13.62-2.07.02-4.19.28-6.3-.19-2.06-.37-3.99-1.33-5.84-2.28-.16-.1-.27-.25-.43-.35-1.35-.82-2.23-1.77-2.84-2.73l-.13.14-1.63,1.48c-.1.08-.22.13-.29.21-.22.22-.44.44-.68.67-.09.08-.17.14-.25.22-.08.1-.16.23-.24.32l-.5.54c-.3.32-.63.63-.97.91l-.25.2-.04.02-.1.03c-.02-.07-.31.24-.54.42-.94.77-1.41.75-1.64.63-.04-.31-.51.55-2-.07-.37-.13-.74-.95-.58-.77l.11-.06.23-.11c.28-.17.52-.41.78-.61,0-.03-.02-.06-.03-.08l-.85-1.03.05-.07.09-.13c.12-.17.23-.33.3-.47.15-.28.15-.46.19-.69-.35-.1,1.57-1.96,1.13-1.45.28-.26.5-1.2.65-1.75.28-1,.8-1.36,1.56-1.7.37-.16.69-.33,1.05-.48.19-.24.36-.48.56-.71.01-.02.06-.08.08-.11-.5-.31-1-.73-1.46-1.54-.22-.43-1.04-.83-1.58-1.12-.91-.47-1.09-1.32-1.09-2.15.02-1.56-.19-3.2-.44-5.01-.07-.45-.02-.89-.05-1.34-.09-.89-.17-1.69-.26-2.62-.18-1.06-.48-2.07-.5-3.16-.06-.75.15-1.57.35-2.29.44-1.55,1.13-2.95,1.79-4.37.25-.62.3-1.43.48-2.15.09-.33.12-.7.27-1,1.11-1.86,2.37-3.65,3.9-5.16.55-.64,1.09-1.3,1.69-1.91.08-.08.27-.1.39-.11.04,0,.03.08.05.13.1-.1.24-.21.28-.3.62-1.16,1.54-2.09,3.05-2.17.3-.01.95-.5,1.33-.78,2.2-1.79,5.11-2.44,7.9-2.66.82-.11,1.66-.13,2.49-.2,2.32-.12,4.67,0,6.96.53,2.92.63,5.78,1.75,8.31,3.43.47.32.88.73,1.27,1.15.28-.4.33-.85.62-1.22.45-.58,1.08-1.18,1.78-1.95.53-.6,1.05-1.02,1.6-1.5l.79-.71.04-.03s-.12-.02-.13-.09c-.02-.11.03-.23.13-.28l1.36-.78c.28-.16.57-.32.9-.51.53-.2-1.11.34.9-.37.19-.03.4-.04.6-.04l.3.03c.15.02.65.13.97.32.76.42,1.18,1.03,1.38,1.58h0ZM222.96,50.99s.05.02.07.04c-.01,0-.03-.02-.03-.02-.02,0-.02,0-.04-.02ZM270.72,1.13c-.05-.02-.07-.02-.12-.04.05.02.1.04.15.06-.01,0-.02-.02-.03-.02ZM271.14,5.86h0s0,0,0,0h0ZM271.89,5.51,272.23,3.07v-.04s-.02-.02-.02-.03c0,.02.02.05.02.07h0Z"/>
  <path class="st0" d="M351.9,24.42c.31,2.98.02,5.96-.6,8.86-.52,2.6-1.35,5.19-2.69,7.53-1,1.82-2.56,3.25-3.89,4.78-1.45,1.48-2.77,3.16-4.59,4.32-1.72,1.19-3.76,1.88-5.74,2.52-.18.04-.36.01-.54.05-3.39.83-5.76-.22-7.1-1.58-.14-.14.28-.47.43-.71l.97-1.62c.1-.17.26-.34.39-.51l.3.34s.11.03.17.04c.06-.11.18-.23.15-.32-.18-.53.34-.67.97-.88,1.62-.58,2.98-1.52,4.34-2.4.89-.55,1.9-1.18,2.86-1.51,2.13-.83,3.28-2.66,4.28-4.44.78-1.31,1.73-2.64,2.3-4.11.25-.86.19-1.75.29-2.62.22-1.19.42-2.42.49-3.65.04-.47.3-.93.35-1.42.41-2.62-.73-5.14-1.59-7.56-.2-.69-.86-1.27-1.38-1.76-1.99-1.76-3.77-3.32-5.59-5.22-.41-.4-.48-1.05-.84-1.56-.17-.21-.56-.47-.83-.53-.45-.09-.87.06-1.3,0-.7-.12-1.38-.41-2.1-.52-1.56-.39-3.57-.79-4.73-.27-1.6.87-2.81-.24-4.11.42-.39.23-.91.29-1.36.44-1.12.35-2.26.73-3.28,1.33-1.04.65-1.89,1.54-2.78,2.34-.71.62-1.53,1.14-2.22,1.85-.88.95-1.58,2.04-2.24,3.14-.55.94-.99,1.97-1.55,2.88-.36.66-.52,1.07-.16,1.63.91,1.32.98,2.48.5,4.29-.09.65-.15,1.06-.24,1.78-.1.58-.47,1.11-.47,1.73.04.54.26,1.27.58,1.68.84,1.01,1.75,1.82,2.28,3.05.33.73.39,1.58.73,2.36.12.29.22.74.45.85,1.46.94,2.79,1.74,3.87,3.15.44.49.86,1.05,1.15,1.61.52.81,1.33,1.24,2.3,1.21,1.66.07,3.18.54,4.78.93,1.33.2,1.51,1.04,1.49,1.82l.33,2.52c.02.19-.05.49-.27.55-1.44.39-2.29,1.55-4.66.9-.46-.14-1.32.15-1.91.32-.98.31-1.7-.16-2.29-.75-1.1-1.12-2.4-2.13-3.85-3.23-.37-.27-.64-.61-.98-.91-.69-.57-1.32-1.08-2.04-1.67-.87-.62-1.8-1.12-2.59-1.89-.57-.48-1-1.21-1.38-1.86-.79-1.4-1.29-2.89-1.82-4.36-.26-.61-.8-1.22-1.18-1.86-.17-.29-.41-.58-.51-.89-.53-2.11-.9-4.25-.9-6.41-.06-.84-.14-1.69-.15-2.55,0-.11.12-.26.2-.35.02-.03.08.04.12.06,0-.14.02-.32-.02-.41-.38-1.27-.39-2.57.62-3.69.21-.23.31-1.03.38-1.5.28-2.82,1.89-5.33,3.7-7.47.51-.65,1.08-1.27,1.62-1.9,1.55-1.72,3.3-3.3,5.29-4.55,2.51-1.62,5.32-2.85,8.3-3.45.89-.17,1.84-.06,2.75-.06,1.43-.09,2.87-.09,4.32.02,1.07.16,2.25.18,3.2.62,3.23,1.31,6.2,2.3,9.23,3.9,2.35,1.26,4.57,3.17,6.28,5.44.59.75.78,1.84,1.13,2.76.13.46.27.93.47,1.37,1.05,2.41,1.85,4.96,2.09,7.58h.02Z"/>
  <path class="st0" d="M427.66,38.62c.97.15,1.6,1.16,2.03,2.6.04.14-.09.45-.14.69-.11.52-.22,1.04-.35,1.56-.04.17-.1.32-.15.48-.03-.12-.06-.24-.09-.36-.01-.03-.04-.05-.06-.07-.02.1-.08.21-.07.3.04.55-.15.61-.39.73-.61.31-1.21.79-1.83,1.03-.4.15-.87.17-1.25-.07-.84-.53-1.6-.04-2.4.25-.6.21-1.23-.03-1.85.06-.35.05-.67.46-1.03.53-.49.11-.99.09-1.49.05-.19-.01-.38-.24-.57-.33-1.01-.49-2.05.03-3.07-.27-.28-.08-.6.15-.88.35-1.02.71-2.05.88-3.09.27-.23-.13-.39-.63-.6-.9-.09-.12-.27-.19-.38-.12-.17.11-.3.45-.46.52-.28.12-.57.11-.86.15-.65.09-1.44-.2-1.9.36-.67.81-1.12-.42-1.67-.08-.18.11-.39.07-.58.07-.48-.02-.96-.13-1.43-.1-.49.04-.98.3-1.48.32-.39.02-.78-.21-1.17-.26-.52-.07-1.04-.04-1.56-.1-.43-.06-.89-.07-1.3-.31-.29-.17-.45-.24-.64.26-.44,1.16-.97,1.41-1.74.92-.24-.16-.51-.18-.73-.37-.24-.19-.42-.62-.66-.74-.21-.11-.51-.06-.71.13-.48.47-.96,1.01-1.52.86-.34-.09-.65-.47-.97-.7-.12-.09-.28-.24-.38-.17-.66.5-1.32.77-2.01.26-.26-.19-.52-.45-.72-.78-.33-.53-.66-.48-1.01-.17-.62.56-1.26.35-1.89.19-.52-.14-.59-.96-.59-1.74-.04-.83-.09-1.67-.12-2.5,0-.19.02-.49.08-.56.45-.45.66-1.62,1.36-1.38.14.05.37-.46.51-.77.24-.51.47-.35.68,0,.4.68.88,1.04,1.42,1.19.13.04.26.2.39.23.26.05.54.12.79.05.32-.1.62-.4.94-.5.22-.07.46,0,.68.09.47.19.93.52,1.4.64.21.05.44-.24.65-.38.1-.06.2-.19.3-.18.65.05,1.29.15,1.93.18.25.01.51-.13.76-.19.04,0,.08.11.11.18.01.02,0,.08-.01.12.04-.01.09,0,.12-.04.37-.56.72-.69,1.12-.04.08.13.32.07.46-.03.82-.57,1.66-.35,2.49-.22.24.04.5.03.74,0,.69-.07,1.38-.16,2.06-.26.87-.13,1.75-.3,2.63-.39.26-.03.53.24.8.25.42.02.84-.06,1.26-.07.32-.01.65-.11.95.03,1.01.48,1.94.08,2.91-.43.76-.4,1.56-.58,2.35-.73.26-.05.55.33.82.49.13.08.27.17.41.17.75.05,1.5.07,2.26.11.86.06,1.71.21,2.57.18.77-.02,1.53-.28,2.3-.32.59-.03,1.18.23,1.77.16.6-.07,1.19-.49,1.79-.59.58-.09,1.18.04,1.77.08.05,0,.1.07.15.08h0ZM399.08,18.12c-.06-.31-.16-.61-.16-.92,0-.06.03-.11.05-.17,0-.07-.02-.13-.02-.2,0-1.7.56-3.26,1.47-4.55.24-1.03,1-1.9,2.09-2.1.03,0,.07.02.11.02,1.15-.73,2.5-1.16,3.95-1.21.08-.04.19-.03.26-.09.65-.49,1.05.07,1.5.22.03,0,.07,0,.1.01.06.01.12.05.19.04.2-.03.43.04.62.12.2.08.37.18.56.28.11.04.21.1.31.15.17.1.35.18.53.26.47.24,1.03.38,1.45.73.34.27.51.7.76,1.05.09.12.15.26.24.39.67.89,1.17,1.92,1.41,3.04.87.28,1.16.96.79,1.81-.13.27-.15.58-.33.82-.11.15-.27.26-.41.38-.07.4-.19.78-.31,1.15.15.55.26,1.16-.12,1.63-.25.31-.68.45-1.04.62-.02.01-.04.02-.06.03-.14.18-.28.36-.43.53-.22.63-.61,1.17-1.32,1.27-.04,0-.08-.02-.12-.02-1.24.82-2.72,1.31-4.32,1.31-3.64,0-6.67-2.49-7.57-5.84-.01-.02-.04-.04-.05-.07-.03-.07-.02-.15-.04-.22-.04-.15-.05-.3-.08-.45h.02ZM406.79,14.27c-.5,0-.95.18-1.35.44-.02.09-.04.17-.04.27-.01.39-.06.62-.08.85,0,.07-.27-.02-.43,0-.07,0-.14.02-.17.05-.13.2-.22.42-.28.66-.08.27-.18.58-.09.86.07.26.36.41.5.6.1.14.08.41.25.52.2.09.52-.03.69-.02.16.03.26.17.4.26l.02.07c.08.07.14.29.2.52.13.02.24.07.37.07.21,0,.39-.07.58-.12,0-.13,0-.29-.02-.4-.03-.38.03-.3.19-.06.11.16.21.24.32.33.88-.41,1.51-1.29,1.51-2.33,0-1.19-.82-2.15-1.92-2.44-.07,0-.16-.01-.23-.01-.02,0-.04-.03-.05-.04-.13-.02-.24-.07-.37-.07h-.02Z"/>
  <path class="st0" d="M510.37,25.02c.86,1.15.75,2.52.12,3.97-.06.15-.42.21-.64.31l-1.5.69c-.17.07-.34.11-.51.16l.17-.34s0-.07,0-.11c-.09.04-.22.06-.28.13-.36.42-.59.25-.92.07-.84-.46-1.79-.77-2.59-1.29-.51-.33-.99-.84-1.2-1.4-.46-1.27-1.57-1.75-2.58-2.43-.75-.5-1.21-1.36-1.89-1.96-.39-.34-1.01-.42-1.42-.75-.57-.46-1.06-1.02-1.53-1.58-.18-.22-.2-.57-.33-.84-.65-1.43-2.07-2.2-2.88-3.51-.22-.35-.71-.54-1.13-.71-1.55-.62-2.7-1.62-3.29-3.17-.12-.34.08-.85.06-1.26,0-.19-.13-.42-.29-.49-.25-.11-.62-.02-.85-.15-.05-.03-.08-.08-.13-.11-.48.48-1.02.91-1.45,1.43-.46.56-.76,1.27-1.24,1.81-.37.43-.93.7-1.37,1.09-.58.58-1.06,1.05-1.63,1.62-.48.44-.95.91-1.53,1.2-.42.21-.63.33-.45.87.42,1.26.07,2.02-1.05,2.51-.35.15-.64.43-1,.55-.38.13-.88.04-1.21.21-.3.16-.55.52-.61.86-.14.84-.22,1.72-.89,2.24-.4.3-.99.38-1.49.58-.19.07-.46.15-.5.3-.29,1.05-.75,1.96-1.82,2.35-.4.15-.85.25-1.29.25-.72,0-1.02.38-1.13.97-.2,1.05-1,1.61-1.75,2.17-.63.48-1.3,0-1.87-.54l-1.96-1.57c-.15-.12-.35-.35-.33-.47.11-.8-.53-1.81.35-2.42.18-.12.03-.71-.06-1.08-.13-.61.21-.75.68-.74.9.02,1.64-.25,2.3-.73.16-.12.41-.14.56-.27.3-.25.63-.5.83-.83.25-.41.33-.94.58-1.36.17-.28.46-.5.75-.68.62-.38,1.31-.66,1.88-1.09.24-.18.25-.64.37-.97.05-.15.06-.34.17-.45.67-.65,1.4-1.34,2.06-1.97.26-.27.41-.64.62-.95.03-.04.16-.01.24,0,.03,0,.05.06.08.1.03-.05.09-.1.09-.16-.04-.78.21-1.25,1.1-1.24.18,0,.37-.3.44-.52.4-1.27,1.4-2.03,2.33-2.85.27-.24.52-.52.74-.8.61-.79,1.24-1.59,1.88-2.41.78-1.04,1.52-2.1,2.34-3.11.24-.3.71-.41.99-.69l.44-.49c1.24-1.37,3.36-1.47,4.73-.23l.07.06.17.17c.28.28.58.56.86.83.32.34.73.63.92,1.05.65,1.42,1.89,2.16,3.23,2.86,1.05.55,1.99,1.29,2.89,2.05.3.25.31.82.47,1.23.07.2.15.41.28.56.73.85,1.44,1.68,2.17,2.52.82.97,1.57,2,2.44,2.91.78.82,1.75,1.47,2.54,2.28.61.62,1.01,1.44,1.65,2.02.66.6,1.55.95,2.22,1.54.65.57,1.14,1.31,1.7,1.97.05.05.05.16.09.22h0ZM507.27,44.74c.97.15,1.6,1.16,2.03,2.6.04.14-.09.45-.14.69-.11.52-.22,1.04-.35,1.56-.04.17-.1.32-.15.49-.03-.12-.06-.24-.1-.36-.01-.03-.04-.05-.06-.07-.02.1-.07.21-.07.3.04.55-.15.61-.39.73-.61.31-1.21.79-1.83,1.03-.4.15-.87.17-1.25-.07-.85-.52-1.6-.04-2.4.25-.59.21-1.23-.03-1.85.06-.35.05-.67.46-1.03.53-.49.11-.99.09-1.49.05-.19-.01-.38-.24-.57-.33-1.01-.49-2.05.03-3.07-.27-.28-.08-.6.15-.87.35-1.02.71-2.05.88-3.09.27-.23-.13-.39-.63-.6-.9-.1-.12-.27-.19-.38-.12-.17.11-.29.45-.47.52-.28.12-.57.11-.85.15-.65.09-1.44-.2-1.9.36-.68.81-1.12-.42-1.67-.08-.18.11-.39.07-.58.07-.48-.02-.96-.13-1.43-.1-.49.04-.98.3-1.47.32-.39.02-.78-.21-1.17-.27-.52-.07-1.04-.04-1.56-.1-.44-.06-.89-.07-1.3-.31-.29-.17-.45-.24-.64.26-.44,1.16-.97,1.41-1.73.92-.24-.16-.51-.18-.73-.37-.24-.19-.42-.62-.66-.74-.21-.11-.51-.05-.7.13-.48.47-.96,1.01-1.52.86-.34-.09-.65-.47-.97-.7-.12-.09-.28-.24-.38-.17-.66.5-1.32.77-2.01.25-.26-.19-.52-.45-.72-.78-.33-.53-.66-.48-1.01-.17-.61.56-1.26.36-1.88.19-.52-.14-.59-.96-.59-1.74-.04-.83-.09-1.67-.12-2.5,0-.19.02-.49.08-.56.45-.45.66-1.62,1.36-1.38.14.05.37-.46.51-.77.24-.51.47-.35.68,0,.4.67.88,1.04,1.42,1.19.13.04.26.2.4.23.27.05.54.13.79.05.32-.1.62-.39.94-.5.22-.07.46,0,.68.09.47.19.93.52,1.4.64.21.06.44-.24.65-.38.1-.06.2-.19.3-.18.65.05,1.29.15,1.93.18.25.01.51-.13.76-.19.04,0,.08.11.11.18.01.02,0,.08-.01.12.04-.01.1,0,.12-.04.37-.56.72-.69,1.12-.03.08.13.32.07.46-.03.82-.57,1.66-.35,2.49-.22.24.04.5.03.74,0,.69-.08,1.38-.16,2.06-.26.88-.13,1.75-.3,2.62-.39.26-.03.53.24.8.26.42.02.84-.06,1.26-.07.32-.01.65-.11.95.03,1.01.48,1.94.08,2.91-.43.76-.4,1.56-.58,2.35-.73.26-.05.55.33.83.49.13.08.27.17.41.17.75.05,1.5.07,2.26.12.86.06,1.72.21,2.57.18.77-.02,1.53-.28,2.3-.32.59-.03,1.18.23,1.77.16.6-.08,1.19-.49,1.79-.59.58-.09,1.18.04,1.77.08.05,0,.1.07.15.08h0Z"/>
  <path class="st0" d="M590.07,25.02c.86,1.15.75,2.52.12,3.97-.06.15-.42.21-.64.31l-1.5.69c-.16.07-.34.11-.51.16l.17-.34s0-.07,0-.11c-.1.04-.22.06-.28.13-.36.42-.59.25-.92.07-.84-.46-1.79-.77-2.59-1.29-.51-.33-.99-.84-1.2-1.4-.46-1.27-1.57-1.75-2.58-2.43-.75-.5-1.21-1.36-1.89-1.96-.39-.34-1.01-.42-1.42-.75-.57-.46-1.06-1.02-1.53-1.58-.18-.22-.2-.57-.32-.84-.65-1.43-2.07-2.2-2.87-3.51-.22-.35-.71-.54-1.13-.71-1.55-.62-2.71-1.62-3.29-3.17-.13-.34.08-.85.06-1.26,0-.19-.13-.42-.29-.49-.25-.11-.62-.02-.85-.15-.05-.03-.08-.08-.13-.11-.48.48-1.02.91-1.45,1.43-.46.56-.76,1.27-1.24,1.81-.37.43-.93.7-1.37,1.09-.58.58-1.06,1.05-1.63,1.62-.48.44-.94.91-1.52,1.2-.42.21-.63.33-.45.87.42,1.26.07,2.02-1.06,2.51-.35.15-.64.43-1,.55-.38.13-.88.04-1.21.21-.3.16-.55.52-.61.86-.14.84-.22,1.72-.89,2.24-.4.3-.99.38-1.49.58-.19.07-.46.15-.51.3-.29,1.05-.75,1.96-1.82,2.35-.4.15-.85.25-1.29.25-.72,0-1.02.38-1.13.97-.2,1.05-1,1.61-1.75,2.17-.63.48-1.3,0-1.87-.54l-1.96-1.57c-.15-.12-.35-.35-.33-.47.11-.8-.53-1.81.35-2.42.18-.12.03-.71-.06-1.08-.13-.61.21-.75.68-.74.9.02,1.64-.25,2.3-.73.16-.12.41-.14.56-.27.3-.25.63-.5.82-.83.25-.41.33-.94.58-1.36.17-.28.46-.5.75-.68.62-.38,1.31-.66,1.88-1.09.24-.18.25-.64.37-.97.05-.15.06-.34.17-.45.67-.65,1.4-1.34,2.06-1.97.26-.27.41-.64.62-.95.03-.04.16-.01.24,0,.03,0,.05.06.08.1.03-.05.1-.1.1-.16-.04-.78.21-1.25,1.1-1.24.18,0,.37-.3.44-.52.4-1.27,1.39-2.03,2.33-2.85.27-.24.52-.52.74-.8.62-.79,1.24-1.59,1.88-2.41.78-1.04,1.52-2.1,2.34-3.11.24-.3.71-.41.99-.69l.44-.49c1.24-1.37,3.36-1.47,4.73-.23l.07.06.17.17c.28.28.58.56.86.83.32.34.73.63.92,1.05.65,1.42,1.89,2.16,3.23,2.86,1.05.55,1.99,1.29,2.89,2.05.3.25.31.82.47,1.23.07.2.15.41.28.56.73.85,1.44,1.68,2.17,2.52.82.97,1.57,2,2.44,2.91.79.82,1.75,1.47,2.54,2.28.61.62,1.01,1.44,1.65,2.02.66.6,1.55.95,2.22,1.54.65.57,1.14,1.31,1.7,1.97.05.05.05.16.09.22h0ZM586.98,44.74c.97.15,1.6,1.16,2.03,2.6.04.14-.09.45-.14.69-.11.52-.22,1.04-.35,1.56-.04.17-.1.32-.15.49-.03-.12-.06-.24-.1-.36-.01-.03-.04-.05-.06-.07-.02.1-.07.21-.07.3.04.55-.15.61-.39.73-.61.31-1.21.79-1.83,1.03-.4.15-.87.17-1.25-.07-.85-.52-1.6-.04-2.4.25-.59.21-1.23-.03-1.85.06-.35.05-.67.46-1.03.53-.49.11-.99.09-1.49.05-.19-.01-.38-.24-.57-.33-1.01-.49-2.05.03-3.07-.27-.28-.08-.6.15-.87.35-1.02.71-2.05.88-3.09.27-.23-.13-.39-.63-.6-.9-.1-.12-.27-.19-.38-.12-.17.11-.3.45-.47.52-.28.12-.57.11-.86.15-.65.09-1.44-.2-1.9.36-.67.81-1.12-.42-1.67-.08-.18.11-.39.07-.58.07-.48-.02-.96-.13-1.43-.1-.49.04-.98.3-1.47.32-.39.02-.78-.21-1.17-.27-.52-.07-1.04-.04-1.56-.1-.43-.06-.89-.07-1.3-.31-.29-.17-.45-.24-.64.26-.44,1.16-.97,1.41-1.74.92-.24-.16-.51-.18-.73-.37-.24-.19-.42-.62-.66-.74-.21-.11-.51-.05-.7.13-.48.47-.96,1.01-1.52.86-.34-.09-.65-.47-.97-.7-.12-.09-.28-.24-.38-.17-.66.5-1.32.77-2.01.25-.26-.19-.52-.45-.72-.78-.33-.53-.66-.48-1.01-.17-.62.56-1.26.36-1.88.19-.52-.14-.59-.96-.59-1.74-.04-.83-.09-1.67-.12-2.5,0-.19.01-.49.08-.56.45-.45.66-1.62,1.37-1.38.14.05.37-.46.51-.77.24-.51.47-.35.68,0,.4.67.88,1.04,1.42,1.19.13.04.26.2.4.23.26.05.54.13.79.05.32-.1.62-.39.94-.5.22-.07.46,0,.68.09.47.19.93.52,1.4.64.21.06.44-.24.65-.38.1-.06.2-.19.3-.18.65.05,1.29.15,1.93.18.25.01.51-.13.76-.19.04,0,.08.11.11.18.01.02,0,.08-.01.12.04-.01.09,0,.12-.04.37-.56.72-.69,1.12-.03.08.13.32.07.46-.03.82-.57,1.66-.35,2.49-.22.24.04.5.03.74,0,.69-.08,1.38-.16,2.06-.26.88-.13,1.75-.3,2.62-.39.26-.03.53.24.8.26.42.02.84-.06,1.26-.07.32-.01.65-.11.95.03,1.01.48,1.94.08,2.91-.43.76-.4,1.56-.58,2.35-.73.26-.05.55.33.83.49.13.08.27.17.41.17.75.05,1.5.07,2.25.12.86.06,1.72.21,2.57.18.77-.02,1.53-.28,2.3-.32.59-.03,1.18.23,1.77.16.6-.08,1.19-.49,1.79-.59.58-.09,1.18.04,1.77.08.05,0,.1.07.15.08h0ZM574.26,32.53c-.18.25-.52.39-.66.62-.13.2-.17.51-.1.75.17.59.34,1.28-.09,1.8-.25.31-.68.45-1.04.62-.13.06-.32.13-.35.24-.16.77-.63,1.47-1.47,1.58-.32.03-.65,0-.95-.11-.48-.21-.72-.04-.97.29-.43.63-1.17.62-1.81.57-.55-.07-.61-.69-.62-1.27l-.1-1.88c0-.14,0-.37.04-.42.24-.35.22-1.22.5-1.09.06.02.05-.37.03-.61-.03-.38.03-.3.19-.06.29.43.6.6.84.57.06,0,.18.07.24.05.11-.04.26-.06.3-.19.06-.15,0-.4.02-.54.03-.09.11-.14.22-.17.23-.06.54-.12.73-.28.09-.07-.09-.26-.15-.38-.03-.06-.1-.13-.08-.16.09-.24.25-.49.27-.77.02-.11-.1-.22-.15-.32,0,0,.08-.04.13-.06h.09s0-.04-.03-.05c-.45-.12-.54-.19-.11-.47.08-.06.02-.15-.07-.18-.51-.19-.5-.49-.63-.84-.03-.11-.12-.17-.2-.23-.24-.16-.49-.3-.76-.36-.34-.09-.68-.07-.98-.06-.09,0-.16-.22-.26-.22-.16-.04-.31.04-.46.06-.11.04-.22.11-.34.04-.46-.26-.75.22-.75.71-.01.39-.06.62-.08.85,0,.07-.27-.02-.43,0-.07,0-.14.02-.16.06-.13.2-.23.42-.28.66-.07.27-.18.58-.1.86.07.26.36.42.51.6.1.14.08.41.25.52.2.1.52-.03.69-.02.16.03.26.17.4.26l.02.07c.21.19.31.93.56,2.03.03.11-.05.34-.08.51-.08.39-.18.78-.3,1.16-.04.12-.1.24-.15.35l-.05-.27s-.03-.04-.04-.06c-.03.07-.08.14-.08.21-.01.42-.18.43-.41.49-.58.13-1.24.32-1.89.22-.41-.06-.85-.3-1.06-.65-.45-.79-1.18-.99-1.86-1.52-.51-.39-.67-1.07-.98-1.61-.16-.31-.58-.54-.72-.9-.22-.49-.28-1.05-.28-1.58,0-.21.16-.41.25-.61.39-1,.28-2.14.95-3.02.17-.23.18-.59.22-.92.12-1.2.97-2.24,2.19-2.46.27-.05.6.18.88.26.13.04.31,0,.38-.08.12-.15.13-.43.28-.54.24-.18.53-.29.82-.39.65-.26,1.49-.11,1.98-.53.78-.59,1.19.39,1.79.27.21-.03.42.04.62.12.49.18.93.46,1.39.69.47.23,1.03.38,1.45.73.34.27.51.7.76,1.04.32.46.65.91.88,1.43.19.43.36.9.32,1.36-.03.34-.05.5.37.61.95.26,1.26.97.88,1.85-.13.27-.15.58-.33.82h0Z"/>
  <path class="st0" d="M669.9,28.63c-.06.15-.42.21-.65.31l-1.5.69c-.17.07-.34.11-.51.16l.17-.34s0-.07,0-.11c-.1.04-.22.06-.28.13-.36.42-.59.25-.92.07-.84-.46-1.79-.77-2.59-1.29-.51-.33-.99-.84-1.2-1.4-.46-1.27-1.57-1.75-2.58-2.43-.75-.5-1.21-1.36-1.89-1.96-.39-.34-1.01-.42-1.42-.75-.57-.46-1.06-1.02-1.53-1.58-.18-.22-.2-.57-.33-.84-.65-1.43-2.07-2.2-2.87-3.51-.22-.35-.71-.54-1.13-.71-1.55-.62-2.71-1.62-3.29-3.17-.13-.34.08-.85.06-1.26,0-.19-.13-.42-.29-.49-.25-.11-.62-.02-.85-.15-.05-.03-.08-.08-.13-.11-.48.48-1.02.91-1.45,1.43-.46.56-.76,1.27-1.24,1.81-.37.43-.94.7-1.37,1.09-.58.57-1.06,1.05-1.63,1.62-.48.44-.95.91-1.53,1.2-.42.21-.63.33-.45.87.42,1.26.07,2.02-1.06,2.51-.35.16-.64.43-1,.55-.38.13-.88.04-1.21.21-.3.16-.55.52-.61.86-.14.84-.22,1.72-.89,2.24-.4.3-.99.38-1.49.58-.19.07-.46.15-.51.3-.29,1.05-.75,1.96-1.82,2.35-.4.15-.85.25-1.29.25-.72,0-1.02.38-1.13.97-.2,1.05-1,1.61-1.75,2.17-.63.48-1.3,0-1.87-.54l-1.96-1.57c-.15-.12-.35-.35-.33-.47.12-.8-.53-1.81.35-2.42.18-.12.03-.71-.05-1.08-.13-.61.21-.75.68-.74.9.02,1.64-.25,2.29-.73.16-.12.41-.14.56-.27.3-.25.63-.5.83-.83.25-.41.33-.94.58-1.36.17-.28.46-.5.75-.68.62-.38,1.31-.66,1.88-1.09.24-.18.25-.64.37-.97.05-.15.06-.34.17-.45.67-.65,1.4-1.34,2.06-1.97.26-.27.41-.64.62-.95.03-.04.16-.01.24,0,.03,0,.05.06.08.1.03-.05.1-.1.1-.16-.04-.78.21-1.25,1.1-1.24.18,0,.37-.3.44-.52.4-1.27,1.4-2.03,2.33-2.85.27-.24.51-.52.74-.8.62-.79,1.24-1.59,1.88-2.41.78-1.04,1.52-2.1,2.34-3.11.24-.3.71-.41.99-.69l.44-.49c1.24-1.37,3.36-1.47,4.73-.23l.07.06.17.17c.28.28.58.56.86.83.32.34.73.63.92,1.05.65,1.42,1.89,2.16,3.23,2.86,1.05.55,1.99,1.29,2.89,2.05.3.25.31.82.47,1.23.07.2.15.41.28.56.73.85,1.44,1.68,2.17,2.52.82.97,1.56,2,2.44,2.91.79.82,1.75,1.47,2.54,2.28.61.62,1.01,1.44,1.65,2.02.66.6,1.55.95,2.22,1.54.65.57,1.14,1.31,1.7,1.97.05.05.05.16.09.22.86,1.15.75,2.52.12,3.97ZM653.43,43.04c.95.26,1.26.97.87,1.85-.13.27-.15.58-.33.82-.18.25-.53.39-.66.62-.13.2-.17.51-.1.75.17.59.34,1.28-.09,1.8-.25.31-.68.45-1.04.62-.13.06-.32.13-.35.24-.16.77-.63,1.47-1.47,1.58-.32.03-.65,0-.95-.11-.48-.21-.72-.04-.97.3-.43.63-1.17.62-1.81.57-.54-.07-.61-.69-.62-1.27l-.1-1.87c0-.14,0-.37.04-.42.24-.35.22-1.22.5-1.09.06.02.05-.37.03-.61-.03-.38.03-.3.19-.06.29.43.59.6.84.57.06,0,.18.07.24.05.11-.04.26-.06.29-.19.06-.15,0-.4.02-.54.03-.09.11-.14.22-.17.23-.06.54-.12.73-.28.09-.07-.09-.26-.15-.38-.03-.06-.1-.13-.08-.16.1-.24.25-.49.26-.77.02-.11-.1-.22-.15-.32,0,0,.08-.04.13-.06h.1s0-.04-.03-.05c-.45-.12-.54-.19-.11-.47.09-.06.02-.15-.07-.18-.5-.19-.5-.49-.63-.84-.03-.1-.12-.17-.2-.23-.24-.16-.49-.3-.76-.36-.34-.09-.68-.06-.98-.05-.09,0-.16-.22-.26-.22-.16-.04-.31.04-.46.06-.11.04-.21.11-.34.04-.46-.26-.75.22-.75.71-.01.39-.06.62-.08.85,0,.07-.27-.01-.43,0-.07,0-.14.02-.17.06-.13.2-.23.42-.28.66-.07.27-.18.58-.09.86.07.26.36.41.5.6.1.14.08.41.25.52.2.1.52-.03.69-.02.16.03.26.17.4.26l.02.07c.21.19.31.93.56,2.03.03.11-.05.34-.09.51-.08.39-.17.78-.29,1.16-.04.12-.1.24-.15.35l-.05-.27s-.03-.04-.04-.05c-.03.07-.08.14-.08.21-.01.41-.18.43-.41.48-.58.14-1.24.32-1.89.22-.41-.06-.85-.3-1.06-.65-.45-.79-1.18-.99-1.86-1.52-.5-.39-.67-1.07-.98-1.61-.16-.32-.58-.54-.72-.9-.22-.5-.28-1.05-.28-1.59,0-.21.16-.41.24-.61.39-1,.27-2.14.95-3.02.17-.23.18-.59.22-.92.12-1.2.97-2.24,2.18-2.47.27-.05.6.19.88.26.13.04.31,0,.38-.08.11-.15.13-.43.28-.54.24-.18.53-.29.82-.39.65-.26,1.49-.1,1.98-.53.78-.59,1.19.39,1.79.27.21-.03.43.04.62.12.49.19.93.47,1.39.69.47.24,1.03.38,1.45.73.34.27.51.7.76,1.05.32.46.65.91.87,1.43.19.43.35.89.32,1.36-.03.34-.05.5.37.61h0Z"/>
  <path class="st0" d="M750.45,24.42c.31,2.98.03,5.96-.59,8.86-.52,2.6-1.35,5.19-2.69,7.53-1,1.82-2.56,3.25-3.89,4.78-1.45,1.48-2.77,3.16-4.59,4.32-1.72,1.19-3.76,1.88-5.74,2.52-.18.04-.36.01-.54.05-3.39.83-5.76-.22-7.1-1.58-.14-.14.28-.47.43-.71l.97-1.62c.1-.17.26-.34.39-.51l.3.34s.11.03.17.04c.06-.11.18-.23.15-.32-.18-.53.34-.67.97-.88,1.62-.58,2.98-1.52,4.34-2.4.89-.55,1.9-1.18,2.86-1.51,2.13-.83,3.28-2.66,4.28-4.44.78-1.31,1.73-2.64,2.3-4.11.25-.86.19-1.75.29-2.62.22-1.19.42-2.42.49-3.65.04-.47.3-.93.35-1.42.41-2.62-.73-5.14-1.59-7.56-.2-.69-.86-1.27-1.38-1.76-1.99-1.76-3.77-3.32-5.59-5.22-.41-.4-.48-1.05-.85-1.56-.17-.21-.56-.47-.83-.53-.45-.09-.87.06-1.3,0-.7-.12-1.38-.41-2.1-.52-1.56-.39-3.57-.79-4.73-.27-1.61.87-2.81-.24-4.11.42-.4.23-.91.29-1.36.44-1.12.35-2.26.73-3.28,1.33-1.04.65-1.89,1.54-2.78,2.34-.71.62-1.53,1.14-2.22,1.85-.88.95-1.58,2.04-2.24,3.14-.55.94-.99,1.97-1.55,2.88-.36.66-.52,1.07-.16,1.63.91,1.32.98,2.48.5,4.29-.09.65-.15,1.06-.24,1.78-.1.58-.47,1.11-.47,1.73.04.54.26,1.27.58,1.68.84,1.01,1.75,1.82,2.28,3.05.33.73.39,1.58.73,2.36.12.29.22.74.45.85,1.46.94,2.79,1.74,3.87,3.15.44.49.86,1.05,1.15,1.61.52.81,1.33,1.24,2.3,1.21,1.66.07,3.18.54,4.78.93,1.33.2,1.51,1.04,1.49,1.82l.33,2.52c.02.19-.05.49-.27.55-1.44.39-2.29,1.55-4.66.9-.46-.14-1.32.15-1.91.32-.98.31-1.7-.16-2.29-.75-1.1-1.12-2.4-2.13-3.85-3.23-.37-.27-.64-.61-.98-.91-.69-.57-1.32-1.08-2.04-1.67-.87-.62-1.8-1.12-2.59-1.89-.58-.48-1-1.21-1.38-1.86-.79-1.4-1.29-2.89-1.82-4.36-.26-.61-.8-1.22-1.18-1.86-.18-.29-.41-.58-.51-.89-.53-2.11-.9-4.25-.89-6.41-.06-.84-.14-1.69-.15-2.55,0-.11.12-.26.2-.36.02-.03.08.04.12.06,0-.14.02-.32-.01-.41-.38-1.27-.39-2.57.62-3.69.2-.23.31-1.03.38-1.5.28-2.82,1.89-5.33,3.7-7.47.51-.65,1.08-1.27,1.62-1.9,1.55-1.72,3.3-3.3,5.29-4.55,2.51-1.62,5.32-2.85,8.3-3.45.89-.17,1.84-.06,2.75-.06,1.43-.09,2.87-.09,4.32.02,1.07.16,2.25.18,3.2.62,3.23,1.31,6.2,2.3,9.23,3.9,2.35,1.26,4.57,3.17,6.28,5.44.59.75.78,1.84,1.13,2.76.13.46.27.93.47,1.37,1.05,2.41,1.85,4.96,2.09,7.58h.02ZM725.27,31.43c.24-.35.22-1.22.5-1.09.06.02.05-.37.03-.61-.03-.38.03-.3.19-.06.29.44.59.6.84.57.06,0,.18.07.24.05.11-.04.26-.06.3-.19.06-.15,0-.4.02-.54.03-.09.11-.14.22-.17.23-.06.54-.12.73-.28.09-.07-.09-.26-.15-.38-.03-.06-.1-.13-.08-.16.1-.24.25-.49.26-.77.02-.11-.1-.22-.15-.32,0,0,.08-.04.13-.05h.09s0-.04-.03-.05c-.45-.12-.54-.19-.11-.47.09-.06.02-.15-.07-.19-.5-.19-.5-.49-.63-.84-.03-.11-.12-.17-.2-.23-.24-.17-.49-.3-.76-.36-.34-.09-.68-.07-.98-.06-.09,0-.16-.22-.26-.23-.16-.04-.31.04-.46.06-.11.04-.21.11-.34.04-.46-.26-.75.22-.75.71-.01.39-.06.62-.08.85,0,.07-.27-.02-.43,0-.06,0-.14.02-.17.05-.13.2-.22.42-.28.66-.07.27-.18.58-.09.86.07.27.36.42.5.6.1.14.08.41.25.52.2.1.52-.03.69-.02.16.03.26.16.4.25l.02.07c.21.18.32.93.57,2.03.03.11-.05.33-.09.51-.08.39-.17.78-.3,1.16-.04.12-.1.24-.15.36l-.05-.27s-.03-.04-.04-.06c-.03.07-.08.14-.08.21-.01.42-.18.44-.41.49-.58.13-1.24.32-1.89.22-.41-.05-.85-.3-1.06-.65-.45-.79-1.18-.99-1.86-1.53-.5-.39-.67-1.07-.98-1.61-.16-.31-.58-.54-.72-.9-.22-.49-.28-1.05-.28-1.58,0-.21.16-.41.24-.61.39-1,.28-2.14.95-3.02.17-.23.19-.59.22-.92.12-1.2.97-2.24,2.18-2.46.27-.05.6.18.88.26.13.04.31,0,.38-.08.12-.15.13-.44.28-.54.24-.18.53-.29.82-.39.65-.26,1.49-.11,1.98-.53.78-.59,1.19.39,1.79.27.21-.03.43.04.62.12.49.18.93.46,1.39.69.47.23,1.03.38,1.45.73.34.27.51.7.76,1.05.32.46.66.91.88,1.43.19.43.36.89.32,1.36-.03.34-.05.5.37.61.95.27,1.26.97.88,1.85-.13.27-.15.58-.33.81-.18.25-.52.4-.66.62-.13.2-.17.51-.1.75.17.59.34,1.28-.09,1.8-.25.31-.68.45-1.04.62-.13.06-.32.13-.35.24-.16.77-.63,1.47-1.47,1.58-.32.03-.65,0-.95-.11-.49-.21-.72-.04-.97.3-.43.63-1.17.62-1.81.57-.54-.07-.61-.69-.61-1.27l-.1-1.88c0-.14,0-.36.04-.42h0Z"/>
  <path class="st0" d="M831.71,2.54l.03.3c0,.2,0,.4-.04.59-.71,2.01-.18.37-.37.9-.18.33-.35.61-.51.89l-.8,1.41c-.06.11-.19.16-.31.12-.05-.02-.03-.09-.06-.13h0s-.71.8-.71.8c-.48.54-.91,1.07-1.5,1.6-.77.71-1.38,1.33-1.95,1.78-.37.29-.82.35-1.22.63,0,0-.02.02-.03.03.05.06.11.1.15.15.65.88,1.46,1.72,1.83,2.7,1.36,3.2,2.76,6.01,3.77,9.29.77,2.56.99,5.48.59,8.29-.11.94-.76,1.85-1.15,2.75-.23.42-.47.85-.63,1.3-.96,2.45-2.2,4.81-3.88,6.84-1.88,2.32-4.2,4.23-6.68,5.84-2.21,1.48-4.63,2.72-7.23,3.43-2,.58-4.11.49-6.13.62-2.07.02-4.19.28-6.3-.19-2.06-.37-3.99-1.33-5.84-2.28-.16-.09-.27-.25-.43-.35-1.51-.92-2.49-2-3.1-3.08-.19.17-.39.3-.58.46-.15.35-.32.68-.48,1.04-.33.76-.7,1.29-1.69,1.57-.56.14-1.49.36-1.75.65.51-.45-1.35,1.48-1.45,1.13-.22.04-.41.04-.69.19-.14.07-.3.18-.47.3l-.13.09c-.07.06-.09.09.07-.19.05-.13.14-.27.17-.68,0-.1,0-.23-.03-.37-.14-.01-.28-.03-.41-.04-.02.02-.03.04-.05.06-.57.54-.72.53-.8.45-.04-.01-.08-.03-.12-.04-.21.26-.44.5-.61.78l-.11.23-.06.11c.19.16-.65-.21-.77-.58-.63-1.49.23-1.96-.07-2-.12-.23-.15-.7.63-1.64.19-.23.5-.52.43-.54l.03-.1.02-.04.2-.25c.28-.34.59-.67.91-.97l.54-.5c.1-.08.22-.16.32-.24.08-.09.14-.17.22-.25.24-.24.45-.46.68-.68.08-.07.13-.19.21-.29l1.48-1.63.34-.34c-.39-.31-.77-.7-1.13-1.33-.22-.43-1.04-.83-1.58-1.12-.91-.47-1.09-1.32-1.09-2.15.02-1.56-.18-3.2-.44-5.01-.07-.45-.02-.89-.05-1.34-.09-.89-.17-1.69-.26-2.62-.18-1.06-.48-2.07-.5-3.16-.06-.75.15-1.57.35-2.29.44-1.55,1.13-2.95,1.79-4.37.25-.62.3-1.43.48-2.15.09-.33.12-.69.27-.99,1.11-1.87,2.37-3.65,3.9-5.16.55-.64,1.09-1.3,1.69-1.91.08-.08.27-.1.39-.11.04,0,.03.08.05.13.1-.1.24-.21.28-.3.62-1.16,1.54-2.09,3.05-2.17.3-.01.95-.51,1.33-.79,2.2-1.79,5.11-2.44,7.9-2.66.82-.11,1.66-.13,2.49-.2,2.31-.12,4.67,0,6.96.53,2.92.63,5.78,1.75,8.31,3.43.21.14.37.32.56.49.5-.53,1.02-1.03,1.5-1.58.39-.43.79-.9,1.25-1.22.73-.5,1.05-1.14,1.65-1.85.69-.75,1.55-1.53,2.77-2l.17-.07.09-.04.04-.02h.01c.21-.11.52-.23.79-.28.17-.07,1.15-.12,1.68.15.53.2,1.16.65,1.55,1.4.18.31.29.84.29.93h0ZM786.91,24.8c-.12.29-.37.67-.28.93.37,1.7.75,3.2.51,4.96-.04.65-.14,1.34-.32,1.95-.21.94.07,1.82.78,2.48.7.77,1.25,1.61,1.77,2.47.18-.16.37-.32.56-.47.16-.12.33-.25.5-.39l.26-.19c.08-.07,0,.02.22-.18l.34-.26.18-.12.21-.12c.26-.3.54-.65.8-.95-.1-.25.66-1.42,1.31-2.2,1.25-1.45,2.41-1.95,3.74-2.77.52-.31,1.17-.91,1.56-1.44.43-.58.56-1.23.94-1.86.35-.6.92-1.19,1.38-1.79.65-.95,1.25-1.63,2.07-2.26.76-.58,1.34-.77,2.14-.89.66-.08.95-.46,1.42-1.15.66-.96,1.65-2.05,2.52-3.04.61-.64,1.33-1.25,1.74-1.67.54-.56,1.08-1.11,1.63-1.67.64-.67,1.21-1.39,1.82-2.06-.13-.09-.24-.2-.41-.26-.44-.12-.85-.44-1.27-.66-1.05-.54-2.11-1.09-3.26-1.38-1.2-.28-2.43-.25-3.62-.31-.94-.06-1.9-.27-2.87-.26-1.29.05-2.56.33-3.81.64-1.06.27-2.1.69-3.13.94-.73.21-1.12.39-1.27,1.04-.29,1.57-1.06,2.44-2.68,3.38-.53.4-.85.64-1.43,1.08-.48.34-1.12.45-1.56.89-.35.41-.71,1.08-.78,1.6-.12,1.31-.05,2.53-.54,3.77-.28.75-.84,1.4-1.15,2.18h0ZM790.56,37.75s.01-.04.01-.06c0,0,0,.02,0,.02,0,.01,0,.02,0,.03h0ZM791,36.49l-.05-.05c-.09.14-.04.12.05.05ZM822.65,31.12c-.16-2.65-.31-5.01-.26-7.64-.01-.58.39-1.08.5-1.7.04-.27-.06-.73-.21-.97-.25-.38-.65-.57-.92-.92-.41-.58-.69-1.27-1.12-1.86-.15-.24-.31-.51-.48-.76-1.32,1.28-2.78,2.42-4.16,3.33-.77.51-1.2.78-1.88,1.54-1.11,1.23-2.11,2.42-3.55,3.51l-.14.1c-.3-.37.67.85-.67-.84h0s0,.03,0,.03l-.02.04-.08.14-.02.03v.02s-.01.01-.01.01c-.16-.14,1.39,1.24.73.66l-.3.35c-.26.33-.55.59-.82.9-.55.59-.94,1.07-1.36,1.64-.12.19-.27.43-.41.66-.16.28-.44.69-.72.96l-.89.84-.65.67c-.63.64-1.08,1.05-1.66,1.55-.79.69-1.68,1.19-2.49,1.9-1.38,1.21-2.68,2.81-4.01,3.84-.08.07-.11-.02-.32.15l-.82.8c-.56.52-1.1,1.03-1.6,1.5-.47.39-.9.74-1.36,1.12-.16.17-.28.31-.4.47.23.02.51.16.84.32,1.55.74,3.18,1.03,4.76,1.38,1.02.24,2.18.51,3.09.96,2.09.92,4.2.45,6.17-.11,1.48-.37,3.1-.63,4.54-1.28.79-.43,1.38-1.1,2.06-1.64,1-.69,2.01-1.42,2.93-2.23.36-.31.87-.45,1.25-.76,2.14-1.57,3.12-4.16,4.22-6.47.34-.63.29-1.51.27-2.22h0ZM794.3,40.73l-.04.02s.04-.02.04-.02l.23-.14.06-.05c-.09.08-.19.12-.29.18h0Z"/>
</svg>