<?xml version="1.0" encoding="UTF-8"?>
<svg id="Layer_1" xmlns="http://www.w3.org/2000/svg" version="1.1" viewBox="0 0 827.89 60.28">
  <!-- Generator: Adobe Illustrator 30.3.0, SVG Export Plug-In . SVG Version: 2.1.1 Build 104)  -->
  <defs>
    <style>
      .st0 {
        fill: #010101;
      }
    </style>
  </defs>
  <path class="st0" d="M10.56,22.09c2.91.04,5.41,2.29,5.68,5.2.14,1.46-.28,2.98-.99,4.24-1.36,2.41-3.39,4.44-5.79,5.81-2.39,1.37-5.5,1.48-7.63-.44-2.19-1.97-2.26-5.08-1.05-7.59,1.07-2.23,2.96-4.19,4.99-5.57,1.44-.98,3.04-1.63,4.79-1.66h0ZM10.35,32.47c-.02-.56-.12-1.1-.31-1.63-.53-1.1-1.4-1.97-2.5-2.51-.54-.2-1.09-.31-1.67-.34.02.56.11,1.11.31,1.64.54,1.12,1.41,2,2.53,2.53.53.19,1.08.29,1.63.31Z"/>
  <path class="st0" d="M112.66,30.46c-1.39,1.68-3.74,4.18-6.11,4.18h-46.24c-2.1,0,.83-4.14,1.22-4.62,1.39-1.68,3.74-4.18,6.11-4.18h46.24c2.1,0-.83,4.14-1.22,4.62Z"/>
  <path class="st0" d="M193.35,37.35c1.91,2.51-6.91,10.28-8.36,8.36-2.49-3.28-4.98-6.56-7.48-9.83-2.09-2.75-4.1-5.57-6.28-8.25-2.22-2.72-5.33-4.28-8.86-4.28-1.27,0-2.61.53-3.6.76-4.49,5.87-8.94,11.77-13.41,17.64-.82,1.08-4.32,4.82-6.11,4.18-2-.71.55-3.73,1.22-4.62,2.77-3.64,5.53-7.28,8.3-10.92,2.85-3.75,5.54-7.85,9.15-10.93,6.03-5.14,15.38-7.31,21.28-.67,2.57,2.89,4.75,6.19,7.09,9.27,2.35,3.1,4.7,6.19,7.06,9.29h0ZM159.13,23.64"/>
  <path class="st0" d="M271.01,7.83c-1.53,1.53-3.06,3.06-4.59,4.59,3.44,4.27,5.51,9.63,5.59,15.37-.18,12.81-9.91,24.79-22.12,28.38-7.9,2.33-16.48.53-22.74-4.48-1.47,1.48-2.95,2.95-4.43,4.43-.8.8-5.79,5.57-7.42,3.74-1.7-1.91,2.57-6.25,3.74-7.42,1.49-1.49,2.98-2.98,4.47-4.47-.55-.68-1.12-1.34-1.6-2.1-6.11-9.65-4.45-21.69,2.42-30.44,7.01-8.93,18.62-14.54,29.94-11.2,3.18.93,5.99,2.53,8.45,4.52,1.53-1.53,3.07-3.07,4.6-4.61.8-.8,5.79-5.57,7.42-3.74,1.7,1.91-2.57,6.25-3.74,7.42h0Z"/>
  <path class="st0" d="M350.93,27.72c-.18,12.8-9.91,24.79-22.12,28.38-10.45,3.08-22.11-1.04-27.97-10.3-6.11-9.65-4.45-21.68,2.42-30.44,7.01-8.93,18.62-14.54,29.94-11.2,10.46,3.08,17.58,12.7,17.73,23.56ZM331.45,50.69c8.79-2.08,13.49-9.23,13.61-18.08-.14-10.37-6.95-19.84-17.06-22.67-7.68-2.15-17.72-.5-22.17,6.76-4.72,7.67-3.64,18,1.66,25.08,5.48,7.32,15,11.03,23.97,8.91h0Z"/>
  <path class="st0" d="M428.52,44.43c-1.39,1.68-3.74,4.18-6.11,4.18h-46.25c-2.1,0,.83-4.14,1.22-4.62,1.39-1.67,3.74-4.18,6.11-4.18h46.24c2.1,0-.83,4.14-1.22,4.62ZM406.79,25.76c-2.39,1.37-5.5,1.48-7.63-.44-2.18-1.97-2.25-5.08-1.05-7.59,1.07-2.23,2.96-4.19,4.99-5.57,1.44-.98,3.04-1.63,4.79-1.65,2.91.04,5.41,2.29,5.68,5.2.14,1.46-.28,2.98-.99,4.24-1.36,2.41-3.39,4.44-5.79,5.81h0ZM406.04,20.57c.53.19,1.08.29,1.63.31-.02-.56-.12-1.1-.31-1.63-.53-1.1-1.4-1.97-2.5-2.51-.54-.2-1.09-.31-1.66-.34.02.56.11,1.11.31,1.64.54,1.12,1.41,2,2.53,2.53h0Z"/>
  <path class="st0" d="M455.11,36.21c-2-.71.55-3.74,1.22-4.62,2.77-3.64,5.53-7.28,8.3-10.92,2.85-3.75,5.54-7.85,9.15-10.93,6.03-5.14,15.38-7.31,21.28-.67,2.57,2.89,4.75,6.19,7.09,9.27,2.35,3.1,4.7,6.19,7.06,9.29,1.91,2.51-6.91,10.28-8.36,8.36-2.49-3.28-4.98-6.56-7.47-9.83-2.09-2.75-4.1-5.57-6.28-8.25-2.21-2.72-5.33-4.28-8.85-4.28-1.27,0-2.61.53-3.6.76-4.49,5.87-8.94,11.76-13.41,17.64-.82,1.08-4.32,4.82-6.11,4.18h0ZM507.47,51.42c-1.39,1.68-3.74,4.18-6.11,4.18h-46.24c-2.1,0,.83-4.14,1.22-4.62,1.39-1.68,3.74-4.18,6.11-4.18h46.24c2.1,0-.83,4.14-1.22,4.62ZM474.99,13.93"/>
  <path class="st0" d="M534.08,36.21c-2-.71.55-3.74,1.22-4.62,2.77-3.64,5.53-7.28,8.3-10.92,2.85-3.75,5.54-7.85,9.15-10.93,6.03-5.14,15.38-7.31,21.27-.67,2.57,2.89,4.76,6.19,7.09,9.27,2.36,3.1,4.7,6.19,7.06,9.29,1.91,2.51-6.91,10.28-8.36,8.36-2.49-3.28-4.98-6.56-7.47-9.83-2.09-2.75-4.1-5.57-6.28-8.25-2.22-2.72-5.33-4.28-8.85-4.28-1.27,0-2.61.53-3.6.76-4.49,5.87-8.94,11.76-13.41,17.64-.82,1.08-4.32,4.82-6.11,4.18h0ZM586.43,51.42c-1.39,1.68-3.74,4.18-6.11,4.18h-46.25c-2.1,0,.83-4.14,1.22-4.62,1.39-1.68,3.74-4.18,6.11-4.18h46.24c2.1,0-.83,4.14-1.22,4.62ZM555.55,26.42c1.44-.98,3.04-1.63,4.79-1.66,2.91.04,5.41,2.29,5.69,5.21.14,1.46-.28,2.98-.99,4.24-1.36,2.41-3.39,4.44-5.79,5.81-2.39,1.37-5.5,1.48-7.63-.44-2.18-1.97-2.26-5.08-1.05-7.59,1.07-2.23,2.96-4.19,4.99-5.57h0ZM553.95,13.93,558.5,34.84c.53.19,1.08.29,1.63.31-.02-.56-.12-1.1-.31-1.63-.53-1.1-1.4-1.97-2.5-2.51-.54-.2-1.09-.31-1.66-.34.02.56.11,1.11.31,1.64.54,1.12,1.41,2,2.53,2.53h0Z"/>
  <path class="st0" d="M667.13,27.56c1.91,2.51-6.91,10.28-8.36,8.36-2.49-3.28-4.98-6.56-7.48-9.83-2.09-2.75-4.1-5.57-6.28-8.25-2.22-2.72-5.33-4.28-8.86-4.28-1.27,0-2.61.53-3.6.76-4.49,5.87-8.94,11.76-13.41,17.64-.82,1.08-4.32,4.82-6.11,4.18-2-.71.55-3.73,1.22-4.62,2.77-3.64,5.53-7.28,8.3-10.92,2.85-3.75,5.54-7.85,9.15-10.93,6.03-5.14,15.38-7.31,21.27-.67,2.57,2.89,4.76,6.19,7.1,9.27,2.35,3.1,4.7,6.19,7.06,9.29h0ZM639.86,39.8c2.92.04,5.41,2.29,5.68,5.2.14,1.46-.28,2.98-.99,4.24-1.36,2.41-3.39,4.44-5.79,5.81-2.39,1.37-5.5,1.48-7.63-.44-2.18-1.97-2.26-5.08-1.05-7.59,1.07-2.23,2.96-4.19,4.99-5.57,1.44-.98,3.04-1.63,4.79-1.65h0ZM632.92,13.86,638.02,49.87c.53.19,1.08.29,1.63.31-.02-.56-.12-1.1-.31-1.63-.53-1.1-1.4-1.97-2.5-2.51-.54-.2-1.09-.32-1.66-.34.02.56.11,1.11.31,1.64.54,1.12,1.41,2,2.53,2.53h0Z"/>
  <path class="st0" d="M745.75,27.72c-.18,12.81-9.91,24.79-22.12,28.38-10.45,3.08-22.11-1.04-27.97-10.3-6.11-9.65-4.45-21.68,2.42-30.44,7.01-8.93,18.62-14.54,29.94-11.2,10.46,3.08,17.58,12.7,17.73,23.56ZM739.88,32.61c-.14-10.36-6.95-19.84-17.06-22.67-7.68-2.15-17.72-.5-22.17,6.76-4.72,7.67-3.64,18,1.66,25.08,5.48,7.32,15,11.03,23.97,8.91,8.79-2.08,13.49-9.23,13.61-18.08ZM721.21,22.01c2.91.04,5.41,2.29,5.68,5.2.14,1.46-.28,2.98-.99,4.24-1.36,2.41-3.39,4.44-5.79,5.81-2.39,1.37-5.5,1.48-7.63-.44-2.18-1.97-2.26-5.08-1.05-7.59,1.07-2.23,2.96-4.19,4.99-5.57,1.44-.98,3.04-1.63,4.79-1.66h0ZM719.37,32.09c.53.19,1.08.29,1.63.31-.02-.56-.12-1.1-.31-1.63-.53-1.1-1.4-1.97-2.5-2.51-.54-.2-1.09-.31-1.66-.34.02.56.12,1.11.31,1.64.54,1.12,1.41,2,2.53,2.53h0Z"/>
  <path class="st0" d="M823.76,7.83l-4.59,4.59c3.44,4.27,5.51,9.62,5.59,15.36-.18,12.81-9.91,24.79-22.12,28.38-7.9,2.33-16.48.53-22.74-4.48-1.48,1.48-2.95,2.95-4.43,4.43-.8.8-5.78,5.57-7.42,3.74-1.7-1.91,2.57-6.25,3.74-7.42l4.47-4.47c-.55-.68-1.12-1.34-1.6-2.1-6.11-9.65-4.45-21.69,2.42-30.44,7.01-8.93,18.62-14.54,29.94-11.2,3.18.93,5.99,2.53,8.45,4.52,1.54-1.53,3.07-3.07,4.61-4.61.8-.8,5.78-5.57,7.42-3.74,1.7,1.91-2.57,6.25-3.74,7.42h0ZM779.66,16.77c-4.72,7.67-3.64,18,1.66,25.08.15.21.34.37.5.58l28.14-28.14c-2.36-1.91-5.06-3.42-8.12-4.28-7.68-2.15-17.72-.5-22.18,6.76h0ZM818.89,32.68c-.07-5.43-2.02-10.59-5.27-14.71-9.38,9.37-18.75,18.75-28.13,28.13,5.49,4.39,12.79,6.32,19.78,4.66,8.79-2.08,13.49-9.23,13.61-18.08Z"/>
</svg>