<?xml version="1.0" encoding="UTF-8"?>
<svg id="Layer_1" xmlns="http://www.w3.org/2000/svg" version="1.1" viewBox="0 0 835.41 50.56">
  <!-- Generator: Adobe Illustrator 30.3.0, SVG Export Plug-In . SVG Version: 2.1.1 Build 104)  -->
  <defs>
    <style>
      .st0 {
        fill: #010101;
      }
    </style>
  </defs>
  <path class="st0" d="M.47,28.28c-.26,0-.47-.21-.47-.47v-5.06c0-.26.21-.47.47-.47h5.06c.26,0,.47.21.47.47v5.06c0,.26-.21.47-.47.47H.47ZM7.7,20.86c-.26,0-.47-.21-.47-.47v-5.06c0-.26.21-.47.47-.47h5.06c.26,0,.47.21.47.47v5.06c0,.26-.21.47-.47.47h-5.06ZM7.7,35.71c-.26,0-.47-.21-.47-.47v-5.06c0-.26.21-.47.47-.47h5.06c.26,0,.47.21.47.47v5.06c0,.26-.21.47-.47.47h-5.06ZM14.92,28.28c-.26,0-.47-.21-.47-.47v-5.06c0-.26.21-.47.47-.47h5.06c.26,0,.47.21.47.47v5.06c0,.26-.21.47-.47.47h-5.06Z"/>
  <path class="st0" d="M66.07,27.69c-.26,0-.47-.21-.47-.47v-5.06c0-.26.21-.47.47-.47h5.06c.26,0,.47.21.47.47v5.06c0,.26-.21.47-.47.47h-5.06ZM73.29,27.69c-.26,0-.47-.21-.47-.47v-5.06c0-.26.21-.47.47-.47h5.06c.26,0,.47.21.47.47v5.06c0,.26-.21.47-.47.47h-5.06ZM80.52,27.69c-.26,0-.47-.21-.47-.47v-5.06c0-.26.21-.47.47-.47h5.06c.26,0,.47.21.47.47v5.06c0,.26-.21.47-.47.47h-5.06ZM87.75,27.69c-.26,0-.47-.21-.47-.47v-5.06c0-.26.21-.47.47-.47h5.06c.26,0,.47.21.47.47v5.06c0,.26-.21.47-.47.47h-5.06ZM94.97,27.69c-.26,0-.47-.21-.47-.47v-5.06c0-.26.21-.47.47-.47h5.06c.26,0,.47.21.47.47v5.06c0,.26-.21.47-.47.47h-5.06ZM102.2,27.69c-.26,0-.47-.21-.47-.47v-5.06c0-.26.21-.47.47-.47h5.06c.26,0,.47.21.47.47v5.06c0,.26-.21.47-.47.47h-5.06ZM109.43,27.69c-.26,0-.47-.21-.47-.47v-5.06c0-.26.21-.47.47-.47h5.06c.26,0,.47.21.47.47v5.06c0,.26-.21.47-.47.47h-5.06Z"/>
  <path class="st0" d="M146.12,35.71c-.26,0-.47-.21-.47-.47v-5.06c0-.26.21-.47.47-.47h5.06c.26,0,.47.21.47.47v5.06c0,.26-.21.47-.47.47h-5.06ZM153.34,28.28c-.26,0-.47-.21-.47-.47v-5.06c0-.26.21-.47.47-.47h5.06c.26,0,.47.21.47.47v5.06c0,.26-.21.47-.47.47h-5.06ZM160.57,20.86c-.26,0-.47-.21-.47-.47v-5.06c0-.26.21-.47.47-.47h5.06c.26,0,.47.21.47.47v5.06c0,.26-.21.47-.47.47h-5.06ZM167.8,13.43c-.26,0-.47-.21-.47-.47v-5.06c0-.26.21-.47.47-.47h5.06c.26,0,.47.21.47.47v5.06c0,.26-.21.47-.47.47h-5.06ZM175.02,20.86c-.26,0-.47-.21-.47-.47v-5.06c0-.26.21-.47.47-.47h5.06c.26,0,.47.21.47.47v5.06c0,.26-.21.47-.47.47h-5.06ZM182.25,28.28c-.26,0-.47-.21-.47-.47v-5.06c0-.26.21-.47.47-.47h5.06c.26,0,.47.21.47.47v5.06c0,.26-.21.47-.47.47h-5.06ZM189.48,35.71c-.26,0-.47-.21-.47-.47v-5.06c0-.26.21-.47.47-.47h5.06c.26,0,.47.21.47.47v5.06c0,.26-.21.47-.47.47h-5.06Z"/>
  <path class="st0" d="M226.17,20.86c-.26,0-.47-.21-.47-.47v-5.06c0-.26.21-.47.47-.47h5.06c.26,0,.47.21.47.47v5.06c0,.26-.21.47-.47.47h-5.06ZM226.17,28.28c-.26,0-.47-.21-.47-.47v-5.06c0-.26.21-.47.47-.47h5.06c.26,0,.47.21.47.47v5.06c0,.26-.21.47-.47.47h-5.06ZM226.17,35.71c-.26,0-.47-.21-.47-.47v-5.06c0-.26.21-.47.47-.47h5.06c.26,0,.47.21.47.47v5.06c0,.26-.21.47-.47.47h-5.06ZM226.17,50.56c-.26,0-.47-.21-.47-.47v-5.06c0-.26.21-.47.47-.47h5.06c.26,0,.47.21.47.47v5.06c0,.26-.21.47-.47.47h-5.06ZM233.39,13.43c-.26,0-.47-.21-.47-.47v-5.06c0-.26.21-.47.47-.47h5.06c.26,0,.47.21.47.47v5.06c0,.26-.21.47-.47.47h-5.06ZM233.39,20.86c-.26,0-.47-.21-.47-.47v-5.06c0-.26.21-.47.47-.47h5.06c.26,0,.47.21.47.47v5.06c0,.26-.21.47-.47.47h-5.06ZM233.39,28.28c-.26,0-.47-.21-.47-.47v-5.06c0-.26.21-.47.47-.47h5.06c.26,0,.47.21.47.47v5.06c0,.26-.21.47-.47.47h-5.06ZM233.39,35.71c-.26,0-.47-.21-.47-.47v-5.06c0-.26.21-.47.47-.47h5.06c.26,0,.47.21.47.47v5.06c0,.26-.21.47-.47.47h-5.06ZM233.39,43.13c-.26,0-.47-.21-.47-.47v-5.06c0-.26.21-.47.47-.47h5.06c.26,0,.47.21.47.47v5.06c0,.26-.21.47-.47.47h-5.06ZM240.62,6c-.26,0-.47-.21-.47-.47V.47c0-.26.21-.47.47-.47h5.06c.26,0,.47.21.47.47v5.06c0,.26-.21.47-.47.47h-5.06ZM240.62,13.43c-.26,0-.47-.21-.47-.47v-5.06c0-.26.21-.47.47-.47h5.06c.26,0,.47.21.47.47v5.06c0,.26-.21.47-.47.47h-5.06ZM240.62,20.86c-.26,0-.47-.21-.47-.47v-5.06c0-.26.21-.47.47-.47h5.06c.26,0,.47.21.47.47v5.06c0,.26-.21.47-.47.47h-5.06ZM240.62,28.28c-.26,0-.47-.21-.47-.47v-5.06c0-.26.21-.47.47-.47h5.06c.26,0,.47.21.47.47v5.06c0,.26-.21.47-.47.47h-5.06ZM240.62,35.71c-.26,0-.47-.21-.47-.47v-5.06c0-.26.21-.47.47-.47h5.06c.26,0,.47.21.47.47v5.06c0,.26-.21.47-.47.47h-5.06ZM240.62,43.13c-.26,0-.47-.21-.47-.47v-5.06c0-.26.21-.47.47-.47h5.06c.26,0,.47.21.47.47v5.06c0,.26-.21.47-.47.47h-5.06ZM240.62,50.56c-.26,0-.47-.21-.47-.47v-5.06c0-.26.21-.47.47-.47h5.06c.26,0,.47.21.47.47v5.06c0,.26-.21.47-.47.47h-5.06ZM247.85,6c-.26,0-.47-.21-.47-.47V.47c0-.26.21-.47.47-.47h5.06c.26,0,.47.21.47.47v5.06c0,.26-.21.47-.47.47h-5.06ZM247.85,13.43c-.26,0-.47-.21-.47-.47v-5.06c0-.26.21-.47.47-.47h5.06c.26,0,.47.21.47.47v5.06c0,.26-.21.47-.47.47h-5.06ZM247.85,20.86c-.26,0-.47-.21-.47-.47v-5.06c0-.26.21-.47.47-.47h5.06c.26,0,.47.21.47.47v5.06c0,.26-.21.47-.47.47h-5.06ZM247.85,28.28c-.26,0-.47-.21-.47-.47v-5.06c0-.26.21-.47.47-.47h5.06c.26,0,.47.21.47.47v5.06c0,.26-.21.47-.47.47h-5.06ZM247.85,35.71c-.26,0-.47-.21-.47-.47v-5.06c0-.26.21-.47.47-.47h5.06c.26,0,.47.21.47.47v5.06c0,.26-.21.47-.47.47h-5.06ZM247.85,43.13c-.26,0-.47-.21-.47-.47v-5.06c0-.26.21-.47.47-.47h5.06c.26,0,.47.21.47.47v5.06c0,.26-.21.47-.47.47h-5.06ZM247.85,50.56c-.26,0-.47-.21-.47-.47v-5.06c0-.26.21-.47.47-.47h5.06c.26,0,.47.21.47.47v5.06c0,.26-.21.47-.47.47h-5.06ZM255.07,6c-.26,0-.47-.21-.47-.47V.47c0-.26.21-.47.47-.47h5.06c.26,0,.47.21.47.47v5.06c0,.26-.21.47-.47.47h-5.06ZM255.07,13.43c-.26,0-.47-.21-.47-.47v-5.06c0-.26.21-.47.47-.47h5.06c.26,0,.47.21.47.47v5.06c0,.26-.21.47-.47.47h-5.06ZM255.07,20.86c-.26,0-.47-.21-.47-.47v-5.06c0-.26.21-.47.47-.47h5.06c.26,0,.47.21.47.47v5.06c0,.26-.21.47-.47.47h-5.06ZM255.07,28.28c-.26,0-.47-.21-.47-.47v-5.06c0-.26.21-.47.47-.47h5.06c.26,0,.47.21.47.47v5.06c0,.26-.21.47-.47.47h-5.06ZM255.07,35.71c-.26,0-.47-.21-.47-.47v-5.06c0-.26.21-.47.47-.47h5.06c.26,0,.47.21.47.47v5.06c0,.26-.21.47-.47.47h-5.06ZM255.07,43.13c-.26,0-.47-.21-.47-.47v-5.06c0-.26.21-.47.47-.47h5.06c.26,0,.47.21.47.47v5.06c0,.26-.21.47-.47.47h-5.06ZM255.07,50.56c-.26,0-.47-.21-.47-.47v-5.06c0-.26.21-.47.47-.47h5.06c.26,0,.47.21.47.47v5.06c0,.26-.21.47-.47.47h-5.06ZM262.3,13.43c-.26,0-.47-.21-.47-.47v-5.06c0-.26.21-.47.47-.47h5.06c.26,0,.47.21.47.47v5.06c0,.26-.21.47-.47.47h-5.06ZM262.3,20.86c-.26,0-.47-.21-.47-.47v-5.06c0-.26.21-.47.47-.47h5.06c.26,0,.47.21.47.47v5.06c0,.26-.21.47-.47.47h-5.06ZM262.3,28.28c-.26,0-.47-.21-.47-.47v-5.06c0-.26.21-.47.47-.47h5.06c.26,0,.47.21.47.47v5.06c0,.26-.21.47-.47.47h-5.06ZM262.3,35.71c-.26,0-.47-.21-.47-.47v-5.06c0-.26.21-.47.47-.47h5.06c.26,0,.47.21.47.47v5.06c0,.26-.21.47-.47.47h-5.06ZM262.3,43.13c-.26,0-.47-.21-.47-.47v-5.06c0-.26.21-.47.47-.47h5.06c.26,0,.47.21.47.47v5.06c0,.26-.21.47-.47.47h-5.06ZM269.52,6c-.26,0-.47-.21-.47-.47V.47c0-.26.21-.47.47-.47h5.06c.26,0,.47.21.47.47v5.06c0,.26-.21.47-.47.47h-5.06ZM269.53,20.86c-.26,0-.47-.21-.47-.47v-5.06c0-.26.21-.47.47-.47h5.06c.26,0,.47.21.47.47v5.06c0,.26-.21.47-.47.47h-5.06ZM269.53,28.28c-.26,0-.47-.21-.47-.47v-5.06c0-.26.21-.47.47-.47h5.06c.26,0,.47.21.47.47v5.06c0,.26-.21.47-.47.47h-5.06ZM269.53,35.71c-.26,0-.47-.21-.47-.47v-5.06c0-.26.21-.47.47-.47h5.06c.26,0,.47.21.47.47v5.06c0,.26-.21.47-.47.47h-5.06Z"/>
  <path class="st0" d="M306.22,20.86c-.26,0-.47-.21-.47-.47v-5.06c0-.26.21-.47.47-.47h5.06c.26,0,.47.21.47.47v5.06c0,.26-.21.47-.47.47h-5.06ZM306.22,28.28c-.26,0-.47-.21-.47-.47v-5.06c0-.26.21-.47.47-.47h5.06c.26,0,.47.21.47.47v5.06c0,.26-.21.47-.47.47h-5.06ZM306.22,35.71c-.26,0-.47-.21-.47-.47v-5.06c0-.26.21-.47.47-.47h5.06c.26,0,.47.21.47.47v5.06c0,.26-.21.47-.47.47h-5.06ZM313.44,13.43c-.26,0-.47-.21-.47-.47v-5.06c0-.26.21-.47.47-.47h5.06c.26,0,.47.21.47.47v5.06c0,.26-.21.47-.47.47h-5.06ZM313.44,43.13c-.26,0-.47-.21-.47-.47v-5.06c0-.26.21-.47.47-.47h5.06c.26,0,.47.21.47.47v5.06c0,.26-.21.47-.47.47h-5.06ZM320.67,6c-.26,0-.47-.21-.47-.47V.47c0-.26.21-.47.47-.47h5.06c.26,0,.47.21.47.47v5.06c0,.26-.21.47-.47.47h-5.06ZM320.67,50.56c-.26,0-.47-.21-.47-.47v-5.06c0-.26.21-.47.47-.47h5.06c.26,0,.47.21.47.47v5.06c0,.26-.21.47-.47.47h-5.06ZM327.89,6c-.26,0-.47-.21-.47-.47V.47c0-.26.21-.47.47-.47h5.06c.26,0,.47.21.47.47v5.06c0,.26-.21.47-.47.47h-5.06ZM327.89,50.56c-.26,0-.47-.21-.47-.47v-5.06c0-.26.21-.47.47-.47h5.06c.26,0,.47.21.47.47v5.06c0,.26-.21.47-.47.47h-5.06ZM335.12,6c-.26,0-.47-.21-.47-.47V.47c0-.26.21-.47.47-.47h5.06c.26,0,.47.21.47.47v5.06c0,.26-.21.47-.47.47h-5.06ZM335.12,50.56c-.26,0-.47-.21-.47-.47v-5.06c0-.26.21-.47.47-.47h5.06c.26,0,.47.21.47.47v5.06c0,.26-.21.47-.47.47h-5.06ZM342.35,13.43c-.26,0-.47-.21-.47-.47v-5.06c0-.26.21-.47.47-.47h5.06c.26,0,.47.21.47.47v5.06c0,.26-.21.47-.47.47h-5.06ZM342.35,43.13c-.26,0-.47-.21-.47-.47v-5.06c0-.26.21-.47.47-.47h5.06c.26,0,.47.21.47.47v5.06c0,.26-.21.47-.47.47h-5.06ZM349.57,20.86c-.26,0-.47-.21-.47-.47v-5.06c0-.26.21-.47.47-.47h5.06c.26,0,.47.21.47.47v5.06c0,.26-.21.47-.47.47h-5.06ZM349.57,28.28c-.26,0-.47-.21-.47-.47v-5.06c0-.26.21-.47.47-.47h5.06c.26,0,.47.21.47.47v5.06c0,.26-.21.47-.47.47h-5.06ZM349.57,35.71c-.26,0-.47-.21-.47-.47v-5.06c0-.26.21-.47.47-.47h5.06c.26,0,.47.21.47.47v5.06c0,.26-.21.47-.47.47h-5.06Z"/>
  <path class="st0" d="M386.27,50.56c-.26,0-.47-.21-.47-.47v-5.06c0-.26.21-.47.47-.47h5.06c.26,0,.47.21.47.47v5.06c0,.26-.21.47-.47.47h-5.06ZM393.49,50.56c-.26,0-.47-.21-.47-.47v-5.06c0-.26.21-.47.47-.47h5.06c.26,0,.47.21.47.47v5.06c0,.26-.21.47-.47.47h-5.06ZM400.72,20.86c-.26,0-.47-.21-.47-.47v-5.06c0-.26.21-.47.47-.47h5.06c.26,0,.47.21.47.47v5.06c0,.26-.21.47-.47.47h-5.06ZM400.72,50.56c-.26,0-.47-.21-.47-.47v-5.06c0-.26.21-.47.47-.47h5.06c.26,0,.47.21.47.47v5.06c0,.26-.21.47-.47.47h-5.06ZM407.94,13.43c-.26,0-.47-.21-.47-.47v-5.06c0-.26.21-.47.47-.47h5.06c.26,0,.47.21.47.47v5.06c0,.26-.21.47-.47.47h-5.06ZM407.94,28.28c-.26,0-.47-.21-.47-.47v-5.06c0-.26.21-.47.47-.47h5.06c.26,0,.47.21.47.47v5.06c0,.26-.21.47-.47.47h-5.06ZM407.94,50.56c-.26,0-.47-.21-.47-.47v-5.06c0-.26.21-.47.47-.47h5.06c.26,0,.47.21.47.47v5.06c0,.26-.21.47-.47.47h-5.06ZM415.17,20.86c-.26,0-.47-.21-.47-.47v-5.06c0-.26.21-.47.47-.47h5.06c.26,0,.47.21.47.47v5.06c0,.26-.21.47-.47.47h-5.06ZM415.17,50.56c-.26,0-.47-.21-.47-.47v-5.06c0-.26.21-.47.47-.47h5.06c.26,0,.47.21.47.47v5.06c0,.26-.21.47-.47.47h-5.06ZM422.4,50.56c-.26,0-.47-.21-.47-.47v-5.06c0-.26.21-.47.47-.47h5.06c.26,0,.47.21.47.47v5.06c0,.26-.21.47-.47.47h-5.06ZM429.62,50.56c-.26,0-.47-.21-.47-.47v-5.06c0-.26.21-.47.47-.47h5.06c.26,0,.47.21.47.47v5.06c0,.26-.21.47-.47.47h-5.06Z"/>
  <path class="st0" d="M466.32,28.28c-.26,0-.47-.21-.47-.47v-5.06c0-.26.21-.47.47-.47h5.06c.26,0,.47.21.47.47v5.06c0,.26-.21.47-.47.47h-5.06ZM466.32,50.56c-.26,0-.47-.21-.47-.47v-5.06c0-.26.21-.47.47-.47h5.06c.26,0,.47.21.47.47v5.06c0,.26-.21.47-.47.47h-5.06ZM473.54,20.86c-.26,0-.47-.21-.47-.47v-5.06c0-.26.21-.47.47-.47h5.06c.26,0,.47.21.47.47v5.06c0,.26-.21.47-.47.47h-5.06ZM473.54,50.56c-.26,0-.47-.21-.47-.47v-5.06c0-.26.21-.47.47-.47h5.06c.26,0,.47.21.47.47v5.06c0,.26-.21.47-.47.47h-5.06ZM480.77,13.43c-.26,0-.47-.21-.47-.47v-5.06c0-.26.21-.47.47-.47h5.06c.26,0,.47.21.47.47v5.06c0,.26-.21.47-.47.47h-5.06ZM480.77,50.56c-.26,0-.47-.21-.47-.47v-5.06c0-.26.21-.47.47-.47h5.06c.26,0,.47.21.47.47v5.06c0,.26-.21.47-.47.47h-5.06ZM488,6c-.26,0-.47-.21-.47-.47V.47c0-.26.21-.47.47-.47h5.06c.26,0,.47.21.47.47v5.06c0,.26-.21.47-.47.47h-5.06ZM488,50.56c-.26,0-.47-.21-.47-.47v-5.06c0-.26.21-.47.47-.47h5.06c.26,0,.47.21.47.47v5.06c0,.26-.21.47-.47.47h-5.06ZM495.22,13.43c-.26,0-.47-.21-.47-.47v-5.06c0-.26.21-.47.47-.47h5.06c.26,0,.47.21.47.47v5.06c0,.26-.21.47-.47.47h-5.06ZM495.22,50.56c-.26,0-.47-.21-.47-.47v-5.06c0-.26.21-.47.47-.47h5.06c.26,0,.47.21.47.47v5.06c0,.26-.21.47-.47.47h-5.06ZM502.45,20.86c-.26,0-.47-.21-.47-.47v-5.06c0-.26.21-.47.47-.47h5.06c.26,0,.47.21.47.47v5.06c0,.26-.21.47-.47.47h-5.06ZM502.45,50.56c-.26,0-.47-.21-.47-.47v-5.06c0-.26.21-.47.47-.47h5.06c.26,0,.47.21.47.47v5.06c0,.26-.21.47-.47.47h-5.06ZM509.68,28.28c-.26,0-.47-.21-.47-.47v-5.06c0-.26.21-.47.47-.47h5.06c.26,0,.47.21.47.47v5.06c0,.26-.21.47-.47.47h-5.06ZM509.68,50.56c-.26,0-.47-.21-.47-.47v-5.06c0-.26.21-.47.47-.47h5.06c.26,0,.47.21.47.47v5.06c0,.26-.21.47-.47.47h-5.06Z"/>
  <path class="st0" d="M546.37,28.28c-.26,0-.47-.21-.47-.47v-5.06c0-.26.21-.47.47-.47h5.06c.26,0,.47.21.47.47v5.06c0,.26-.21.47-.47.47h-5.06ZM546.37,50.56c-.26,0-.47-.21-.47-.47v-5.06c0-.26.21-.47.47-.47h5.06c.26,0,.47.21.47.47v5.06c0,.26-.21.47-.47.47h-5.06ZM553.59,20.86c-.26,0-.47-.21-.47-.47v-5.06c0-.26.21-.47.47-.47h5.06c.26,0,.47.21.47.47v5.06c0,.26-.21.47-.47.47h-5.06ZM553.59,50.56c-.26,0-.47-.21-.47-.47v-5.06c0-.26.21-.47.47-.47h5.06c.26,0,.47.21.47.47v5.06c0,.26-.21.47-.47.47h-5.06ZM560.82,13.43c-.26,0-.47-.21-.47-.47v-5.06c0-.26.21-.47.47-.47h5.06c.26,0,.47.21.47.47v5.06c0,.26-.21.47-.47.47h-5.06ZM560.82,35.71c-.26,0-.47-.21-.47-.47v-5.06c0-.26.21-.47.47-.47h5.06c.26,0,.47.21.47.47v5.06c0,.26-.21.47-.47.47h-5.06ZM560.82,50.56c-.26,0-.47-.21-.47-.47v-5.06c0-.26.21-.47.47-.47h5.06c.26,0,.47.21.47.47v5.06c0,.26-.21.47-.47.47h-5.06ZM568.04,6c-.26,0-.47-.21-.47-.47V.47c0-.26.21-.47.47-.47h5.06c.26,0,.47.21.47.47v5.06c0,.26-.21.47-.47.47h-5.06ZM568.04,28.28c-.26,0-.47-.21-.47-.47v-5.06c0-.26.21-.47.47-.47h5.06c.26,0,.47.21.47.47v5.06c0,.26-.21.47-.47.47h-5.06ZM568.04,43.13c-.26,0-.47-.21-.47-.47v-5.06c0-.26.21-.47.47-.47h5.06c.26,0,.47.21.47.47v5.06c0,.26-.21.47-.47.47h-5.06ZM568.04,50.56c-.26,0-.47-.21-.47-.47v-5.06c0-.26.21-.47.47-.47h5.06c.26,0,.47.21.47.47v5.06c0,.26-.21.47-.47.47h-5.06ZM575.27,13.43c-.26,0-.47-.21-.47-.47v-5.06c0-.26.21-.47.47-.47h5.06c.26,0,.47.21.47.47v5.06c0,.26-.21.47-.47.47h-5.06ZM575.27,35.71c-.26,0-.47-.21-.47-.47v-5.06c0-.26.21-.47.47-.47h5.06c.26,0,.47.21.47.47v5.06c0,.26-.21.47-.47.47h-5.06ZM575.27,50.56c-.26,0-.47-.21-.47-.47v-5.06c0-.26.21-.47.47-.47h5.06c.26,0,.47.21.47.47v5.06c0,.26-.21.47-.47.47h-5.06ZM582.5,20.86c-.26,0-.47-.21-.47-.47v-5.06c0-.26.21-.47.47-.47h5.06c.26,0,.47.21.47.47v5.06c0,.26-.21.47-.47.47h-5.06ZM582.5,50.56c-.26,0-.47-.21-.47-.47v-5.06c0-.26.21-.47.47-.47h5.06c.26,0,.47.21.47.47v5.06c0,.26-.21.47-.47.47h-5.06ZM589.72,28.28c-.26,0-.47-.21-.47-.47v-5.06c0-.26.21-.47.47-.47h5.06c.26,0,.47.21.47.47v5.06c0,.26-.21.47-.47.47h-5.06ZM589.72,50.56c-.26,0-.47-.21-.47-.47v-5.06c0-.26.21-.47.47-.47h5.06c.26,0,.47.21.47.47v5.06c0,.26-.21.47-.47.47h-5.06Z"/>
  <path class="st0" d="M626.42,28.28c-.26,0-.47-.21-.47-.47v-5.06c0-.26.21-.47.47-.47h5.06c.26,0,.47.21.47.47v5.06c0,.26-.21.47-.47.47h-5.06ZM633.64,20.86c-.26,0-.47-.21-.47-.47v-5.06c0-.26.21-.47.47-.47h5.06c.26,0,.47.21.47.47v5.06c0,.26-.21.47-.47.47h-5.06ZM640.87,13.43c-.26,0-.47-.21-.47-.47v-5.06c0-.26.21-.47.47-.47h5.06c.26,0,.47.21.47.47v5.06c0,.26-.21.47-.47.47h-5.06ZM640.87,43.13c-.26,0-.47-.21-.47-.47v-5.06c0-.26.21-.47.47-.47h5.06c.26,0,.47.21.47.47v5.06c0,.26-.21.47-.47.47h-5.06ZM648.1,6c-.26,0-.47-.21-.47-.47V.47c0-.26.21-.47.47-.47h5.06c.26,0,.47.21.47.47v5.06c0,.26-.21.47-.47.47h-5.06ZM648.1,35.71c-.26,0-.47-.21-.47-.47v-5.06c0-.26.21-.47.47-.47h5.06c.26,0,.47.21.47.47v5.06c0,.26-.21.47-.47.47h-5.06ZM648.1,50.56c-.26,0-.47-.21-.47-.47v-5.06c0-.26.21-.47.47-.47h5.06c.26,0,.47.21.47.47v5.06c0,.26-.21.47-.47.47h-5.06ZM655.32,13.43c-.26,0-.47-.21-.47-.47v-5.06c0-.26.21-.47.47-.47h5.06c.26,0,.47.21.47.47v5.06c0,.26-.21.47-.47.47h-5.06ZM655.32,43.13c-.26,0-.47-.21-.47-.47v-5.06c0-.26.21-.47.47-.47h5.06c.26,0,.47.21.47.47v5.06c0,.26-.21.47-.47.47h-5.06ZM662.55,20.86c-.26,0-.47-.21-.47-.47v-5.06c0-.26.21-.47.47-.47h5.06c.26,0,.47.21.47.47v5.06c0,.26-.21.47-.47.47h-5.06ZM669.78,28.28c-.26,0-.47-.21-.47-.47v-5.06c0-.26.21-.47.47-.47h5.06c.26,0,.47.21.47.47v5.06c0,.26-.21.47-.47.47h-5.06Z"/>
  <path class="st0" d="M706.47,20.86c-.26,0-.47-.21-.47-.47v-5.06c0-.26.21-.47.47-.47h5.06c.26,0,.47.21.47.47v5.06c0,.26-.21.47-.47.47h-5.06ZM706.47,28.28c-.26,0-.47-.21-.47-.47v-5.06c0-.26.21-.47.47-.47h5.06c.26,0,.47.21.47.47v5.06c0,.26-.21.47-.47.47h-5.06ZM706.47,35.71c-.26,0-.47-.21-.47-.47v-5.06c0-.26.21-.47.47-.47h5.06c.26,0,.47.21.47.47v5.06c0,.26-.21.47-.47.47h-5.06ZM713.69,13.43c-.26,0-.47-.21-.47-.47v-5.06c0-.26.21-.47.47-.47h5.06c.26,0,.47.21.47.47v5.06c0,.26-.21.47-.47.47h-5.06ZM713.69,43.13c-.26,0-.47-.21-.47-.47v-5.06c0-.26.21-.47.47-.47h5.06c.26,0,.47.21.47.47v5.06c0,.26-.21.47-.47.47h-5.06ZM720.92,6c-.26,0-.47-.21-.47-.47V.47c0-.26.21-.47.47-.47h5.06c.26,0,.47.21.47.47v5.06c0,.26-.21.47-.47.47h-5.06ZM720.92,28.28c-.26,0-.47-.21-.47-.47v-5.06c0-.26.21-.47.47-.47h5.06c.26,0,.47.21.47.47v5.06c0,.26-.21.47-.47.47h-5.06ZM720.92,50.56c-.26,0-.47-.21-.47-.47v-5.06c0-.26.21-.47.47-.47h5.06c.26,0,.47.21.47.47v5.06c0,.26-.21.47-.47.47h-5.06ZM728.14,6c-.26,0-.47-.21-.47-.47V.47c0-.26.21-.47.47-.47h5.06c.26,0,.47.21.47.47v5.06c0,.26-.21.47-.47.47h-5.06ZM728.14,20.86c-.26,0-.47-.21-.47-.47v-5.06c0-.26.21-.47.47-.47h5.06c.26,0,.47.21.47.47v5.06c0,.26-.21.47-.47.47h-5.06ZM728.14,35.71c-.26,0-.47-.21-.47-.47v-5.06c0-.26.21-.47.47-.47h5.06c.26,0,.47.21.47.47v5.06c0,.26-.21.47-.47.47h-5.06ZM728.14,50.56c-.26,0-.47-.21-.47-.47v-5.06c0-.26.21-.47.47-.47h5.06c.26,0,.47.21.47.47v5.06c0,.26-.21.47-.47.47h-5.06ZM735.37,6c-.26,0-.47-.21-.47-.47V.47c0-.26.21-.47.47-.47h5.06c.26,0,.47.21.47.47v5.06c0,.26-.21.47-.47.47h-5.06ZM735.37,28.28c-.26,0-.47-.21-.47-.47v-5.06c0-.26.21-.47.47-.47h5.06c.26,0,.47.21.47.47v5.06c0,.26-.21.47-.47.47h-5.06ZM735.37,50.56c-.26,0-.47-.21-.47-.47v-5.06c0-.26.21-.47.47-.47h5.06c.26,0,.47.21.47.47v5.06c0,.26-.21.47-.47.47h-5.06ZM742.6,13.43c-.26,0-.47-.21-.47-.47v-5.06c0-.26.21-.47.47-.47h5.06c.26,0,.47.21.47.47v5.06c0,.26-.21.47-.47.47h-5.06ZM742.6,43.13c-.26,0-.47-.21-.47-.47v-5.06c0-.26.21-.47.47-.47h5.06c.26,0,.47.21.47.47v5.06c0,.26-.21.47-.47.47h-5.06ZM749.82,20.86c-.26,0-.47-.21-.47-.47v-5.06c0-.26.21-.47.47-.47h5.06c.26,0,.47.21.47.47v5.06c0,.26-.21.47-.47.47h-5.06ZM749.82,28.28c-.26,0-.47-.21-.47-.47v-5.06c0-.26.21-.47.47-.47h5.06c.26,0,.47.21.47.47v5.06c0,.26-.21.47-.47.47h-5.06ZM749.82,35.71c-.26,0-.47-.21-.47-.47v-5.06c0-.26.21-.47.47-.47h5.06c.26,0,.47.21.47.47v5.06c0,.26-.21.47-.47.47h-5.06Z"/>
  <path class="st0" d="M786.52,20.86c-.26,0-.47-.21-.47-.47v-5.06c0-.26.21-.47.47-.47h5.06c.26,0,.47.21.47.47v5.06c0,.26-.21.47-.47.47h-5.06ZM786.52,28.28c-.26,0-.47-.21-.47-.47v-5.06c0-.26.21-.47.47-.47h5.06c.26,0,.47.21.47.47v5.06c0,.26-.21.47-.47.47h-5.06ZM786.52,35.71c-.26,0-.47-.21-.47-.47v-5.06c0-.26.21-.47.47-.47h5.06c.26,0,.47.21.47.47v5.06c0,.26-.21.47-.47.47h-5.06ZM786.52,50.56c-.26,0-.47-.21-.47-.47v-5.06c0-.26.21-.47.47-.47h5.06c.26,0,.47.21.47.47v5.06c0,.26-.21.47-.47.47h-5.06ZM793.74,13.43c-.26,0-.47-.21-.47-.47v-5.06c0-.26.21-.47.47-.47h5.06c.26,0,.47.21.47.47v5.06c0,.26-.21.47-.47.47h-5.06ZM793.74,43.13c-.26,0-.47-.21-.47-.47v-5.06c0-.26.21-.47.47-.47h5.06c.26,0,.47.21.47.47v5.06c0,.26-.21.47-.47.47h-5.06ZM800.97,6c-.26,0-.47-.21-.47-.47V.47c0-.26.21-.47.47-.47h5.06c.26,0,.47.21.47.47v5.06c0,.26-.21.47-.47.47h-5.06ZM800.97,35.71c-.26,0-.47-.21-.47-.47v-5.06c0-.26.21-.47.47-.47h5.06c.26,0,.47.21.47.47v5.06c0,.26-.21.47-.47.47h-5.06ZM800.97,50.56c-.26,0-.47-.21-.47-.47v-5.06c0-.26.21-.47.47-.47h5.06c.26,0,.47.21.47.47v5.06c0,.26-.21.47-.47.47h-5.06ZM808.19,6c-.26,0-.47-.21-.47-.47V.47c0-.26.21-.47.47-.47h5.06c.26,0,.47.21.47.47v5.06c0,.26-.21.47-.47.47h-5.06ZM808.19,28.28c-.26,0-.47-.21-.47-.47v-5.06c0-.26.21-.47.47-.47h5.06c.26,0,.47.21.47.47v5.06c0,.26-.21.47-.47.47h-5.06ZM808.19,50.56c-.26,0-.47-.21-.47-.47v-5.06c0-.26.21-.47.47-.47h5.06c.26,0,.47.21.47.47v5.06c0,.26-.21.47-.47.47h-5.06ZM815.42,6c-.26,0-.47-.21-.47-.47V.47c0-.26.21-.47.47-.47h5.06c.26,0,.47.21.47.47v5.06c0,.26-.21.47-.47.47h-5.06ZM815.42,20.86c-.26,0-.47-.21-.47-.47v-5.06c0-.26.21-.47.47-.47h5.06c.26,0,.47.21.47.47v5.06c0,.26-.21.47-.47.47h-5.06ZM815.42,50.56c-.26,0-.47-.21-.47-.47v-5.06c0-.26.21-.47.47-.47h5.06c.26,0,.47.21.47.47v5.06c0,.26-.21.47-.47.47h-5.06ZM822.65,43.13c-.26,0-.47-.21-.47-.47v-5.06c0-.26.21-.47.47-.47h5.06c.26,0,.47.21.47.47v5.06c0,.26-.21.47-.47.47h-5.06ZM822.65,13.43c-.26,0-.47-.21-.47-.47v-5.06c0-.26.21-.47.47-.47h5.06c.26,0,.47.21.47.47v5.06c0,.26-.21.47-.47.47h-5.06ZM829.87,6c-.26,0-.47-.21-.47-.47V.47c0-.26.21-.47.47-.47h5.06c.26,0,.47.21.47.47v5.06c0,.26-.21.47-.47.47h-5.06ZM829.87,20.86c-.26,0-.47-.21-.47-.47v-5.06c0-.26.21-.47.47-.47h5.06c.26,0,.47.21.47.47v5.06c0,.26-.21.47-.47.47h-5.06ZM829.87,28.28c-.26,0-.47-.21-.47-.47v-5.06c0-.26.21-.47.47-.47h5.06c.26,0,.47.21.47.47v5.06c0,.26-.21.47-.47.47h-5.06ZM829.87,35.71c-.26,0-.47-.21-.47-.47v-5.06c0-.26.21-.47.47-.47h5.06c.26,0,.47.21.47.47v5.06c0,.26-.21.47-.47.47h-5.06Z"/>
</svg>