<?xml version="1.0" encoding="UTF-8"?>
<svg id="Layer_1" xmlns="http://www.w3.org/2000/svg" version="1.1" viewBox="0 0 829.99 57.44">
  <!-- Generator: Adobe Illustrator 30.3.0, SVG Export Plug-In . SVG Version: 2.1.1 Build 104)  -->
  <defs>
    <style>
      .st0 {
        fill: #010101;
      }
    </style>
  </defs>
  <path class="st0" d="M17.63,28.72c0,4.86-3.95,8.82-8.82,8.82S0,33.59,0,28.72s3.95-8.82,8.82-8.82,8.82,3.96,8.82,8.82Z"/>
  <path class="st0" d="M115.2,28.64c0,3.11-2.53,5.63-5.63,5.63h-43.02c-3.11,0-5.63-2.53-5.63-5.63s2.53-5.63,5.63-5.63h43.02c3.11,0,5.63,2.53,5.63,5.63Z"/>
  <path class="st0" d="M192.66,44.44c-2.19,2.04-5.93,1.9-7.96-.28l-17.23-18.51-17.57,18.54c-1.03,1.09-2.43,1.72-3.93,1.76h-.16c-1.45,0-2.82-.54-3.88-1.55-1.09-1.04-1.72-2.43-1.75-3.93-.04-1.5.51-2.93,1.54-4.02l21.7-22.9c2.14-2.26,6.12-2.21,8.21.03l21.32,22.9c2.11,2.27,1.99,5.85-.28,7.96Z"/>
  <path class="st0" d="M273.63,1.65c2.2,2.2,2.2,5.77,0,7.97l-5.11,5.11c2.7,4.2,4.11,9.01,4.11,14,0,14.37-11.7,26.07-26.07,26.07-4.99,0-9.79-1.41-13.99-4.11l-5.11,5.11c-1.07,1.06-2.48,1.65-3.98,1.65s-2.92-.59-3.98-1.65c-2.2-2.2-2.2-5.77,0-7.97l5.11-5.11c-2.7-4.21-4.11-9.01-4.11-13.99,0-14.37,11.69-26.07,26.07-26.07,4.99,0,9.8,1.41,13.99,4.11l5.11-5.11c2.2-2.19,5.77-2.19,7.96,0h0Z"/>
  <path class="st0" d="M351.87,28.43c0,14.38-11.7,26.07-26.07,26.07s-26.07-11.69-26.07-26.07,11.7-26.07,26.07-26.07,26.07,11.69,26.07,26.07ZM341.3,28.43c0-8.55-6.96-15.5-15.5-15.5s-15.5,6.95-15.5,15.5,6.95,15.5,15.5,15.5,15.5-6.95,15.5-15.5Z"/>
  <path class="st0" d="M432.19,42.36c0,3.11-2.53,5.63-5.63,5.63h-43.02c-3.11,0-5.63-2.53-5.63-5.63s2.53-5.63,5.63-5.63h43.02c3.11,0,5.63,2.53,5.63,5.63ZM396.23,18.01c0-4.86,3.95-8.82,8.82-8.82s8.82,3.96,8.82,8.82-3.95,8.82-8.82,8.82-8.82-3.95-8.82-8.82Z"/>
  <path class="st0" d="M511.44,48.87c0,3.11-2.53,5.63-5.63,5.63h-43.02c-3.11,0-5.63-2.53-5.63-5.63s2.53-5.63,5.63-5.63h43.02c3.11,0,5.63,2.53,5.63,5.63ZM458.91,34.68c-1.09-1.04-1.72-2.43-1.75-3.94-.04-1.5.51-2.93,1.54-4.02l21.7-22.9c1.06-1.12,2.55-1.76,4.09-1.76,1.67.27,3.06.65,4.12,1.8l21.32,22.9c2.11,2.27,1.99,5.85-.29,7.96-2.2,2.04-5.93,1.9-7.96-.28l-17.23-18.51-17.57,18.54c-1.04,1.09-2.43,1.72-3.93,1.76h-.16c-1.45,0-2.82-.54-3.87-1.55Z"/>
  <path class="st0" d="M590.68,50.94c0,3.11-2.53,5.63-5.63,5.63h-43.02c-3.11,0-5.63-2.53-5.63-5.63s2.53-5.63,5.63-5.63h43.02c3.11,0,5.63,2.53,5.63,5.63ZM542.03,35c-1.45,0-2.82-.54-3.87-1.55-1.09-1.03-1.72-2.43-1.76-3.93-.04-1.5.51-2.93,1.54-4.02l21.7-22.9c1.06-1.12,2.55-1.76,4.09-1.76,1.67.27,3.06.65,4.12,1.8l21.31,22.9c1.03,1.1,1.56,2.54,1.51,4.04-.05,1.5-.69,2.9-1.79,3.92-2.19,2.04-5.92,1.9-7.96-.28l-17.23-18.52-17.57,18.54c-1.04,1.09-2.44,1.72-3.94,1.76h-.15ZM563.54,24.31c4.86,0,8.82,3.96,8.82,8.82s-3.95,8.82-8.82,8.82-8.82-3.95-8.82-8.82,3.96-8.82,8.82-8.82Z"/>
  <path class="st0" d="M668.14,35.22c-2.19,2.04-5.92,1.9-7.96-.28l-17.23-18.51-17.57,18.54c-1.03,1.09-2.43,1.72-3.93,1.76h-.16c-1.45,0-2.82-.54-3.88-1.55-1.09-1.04-1.72-2.43-1.75-3.94-.04-1.5.51-2.93,1.54-4.02l21.7-22.9c2.14-2.26,6.12-2.21,8.21.03l21.32,22.9c2.11,2.27,1.99,5.85-.29,7.96ZM651.61,45.73c0,4.86-3.95,8.82-8.82,8.82s-8.82-3.95-8.82-8.82,3.95-8.82,8.82-8.82,8.82,3.96,8.82,8.82Z"/>
  <path class="st0" d="M748.1,28.57c0,14.37-11.7,26.07-26.07,26.07s-26.07-11.69-26.07-26.07,11.7-26.07,26.07-26.07,26.07,11.69,26.07,26.07ZM722.03,13.07c-8.54,0-15.5,6.95-15.5,15.5s6.95,15.5,15.5,15.5,15.5-6.95,15.5-15.5-6.96-15.5-15.5-15.5ZM730.85,28.57c0,4.86-3.95,8.82-8.82,8.82s-8.82-3.95-8.82-8.82,3.96-8.82,8.82-8.82,8.82,3.96,8.82,8.82Z"/>
  <path class="st0" d="M829.13,8.66c-.19.34-.45.64-.75.94l-5.11,5.11c.83,1.28,1.54,2.63,2.1,4.06.23.52.45,1.09.6,1.65.15.34.23.68.34,1.01.19.56.34,1.16.45,1.77.08.3.11.56.15.86.15.64.23,1.24.3,1.88,0,.07.04.15,0,.23.11.86.15,1.69.15,2.55,0,14.38-11.68,26.06-26.06,26.06-.86,0-1.73-.04-2.55-.15-.08.04-.15,0-.23,0-.64-.07-1.28-.15-1.88-.3-.3,0-.56-.07-.86-.15-.15,0-.26-.04-.41-.11-.56-.11-1.09-.23-1.65-.41-.15-.04-.37-.11-.56-.19-.6-.19-1.2-.41-1.77-.68-1.43-.56-2.82-1.28-4.09-2.1l-5.11,5.11c-.3.3-.6.53-.94.75-.56.37-1.24.64-1.95.79-.3.07-.64.11-.98.11-.75,0-1.5-.15-2.18-.45-.71-.23-1.35-.64-1.91-1.2s-.94-1.2-1.24-1.88c0-.11-.04-.23-.11-.34-.45-1.28-.41-2.67.11-3.91.26-.64.68-1.24,1.24-1.84l5.11-5.11c-.41-.64-.79-1.31-1.13-1.99-.34-.6-.64-1.24-.9-1.88-.34-.75-.6-1.54-.86-2.33,0-.04-.04-.07-.04-.11-.26-.79-.45-1.61-.64-2.44-.38-1.73-.56-3.49-.56-5.26,0-6.27,2.25-12.05,5.97-16.6,4.81-5.78,12.05-9.46,20.13-9.46.86,0,1.73.04,2.55.15.07-.04.15,0,.23,0,.64.07,1.28.15,1.88.3.3.04.56.07.86.15.6.11,1.16.26,1.77.45.41.11.79.23,1.2.37.49.15.98.34,1.43.56,1.43.56,2.82,1.28,4.09,2.1l5.11-5.11c.6-.56,1.2-.98,1.84-1.24,1.01-.41,2.14-.49,3.23-.3.04,0,.11.04.19.04.98.22,1.95.75,2.7,1.5.56.56.94,1.2,1.2,1.88,0,.07.04.11.04.19.64,1.61.45,3.45-.49,4.96ZM785.79,28.71c0,.64.04,1.24.11,1.84.11.94.3,1.88.6,2.78,0,0,0,.04.04.07.15.53.34,1.01.56,1.5l20.39-20.35c-.49-.22-.98-.41-1.5-.6-.04-.04-.07-.04-.07-.04-.9-.26-1.84-.49-2.78-.6-.6-.07-1.2-.11-1.84-.11-8.56,0-15.51,6.95-15.51,15.51ZM795.07,42.9c1.92.86,4.02,1.31,6.23,1.31,8.52,0,15.51-6.95,15.51-15.51,0-2.22-.49-4.32-1.31-6.23l-20.43,20.43Z"/>
</svg>