<?xml version="1.0" encoding="UTF-8"?>
<svg id="Layer_1" xmlns="http://www.w3.org/2000/svg" version="1.1" viewBox="0 0 829.44 56.37">
  <!-- Generator: Adobe Illustrator 30.3.0, SVG Export Plug-In . SVG Version: 2.1.1 Build 104)  -->
  <defs>
    <style>
      .st0 {
        fill: #010101;
      }
    </style>
  </defs>
  <path class="st0" d="M15.56,28.12c0,4.29-3.49,7.78-7.78,7.78s-7.78-3.49-7.78-7.78,3.49-7.78,7.78-7.78,7.78,3.49,7.78,7.78Z"/>
  <path class="st0" d="M113.65,28.19c0,2.18-1.77,3.94-3.94,3.94h-45.17c-2.18,0-3.94-1.76-3.94-3.94s1.77-3.94,3.94-3.94h45.17c2.18,0,3.94,1.76,3.94,3.94Z"/>
  <path class="st0" d="M191.95,37.08c1.48,1.59,1.39,4.09-.2,5.57-.76.71-1.72,1.06-2.69,1.06-1.06,0-2.11-.42-2.89-1.25l-19.52-20.97-19.9,20.99c-1.5,1.58-4,1.65-5.57.15-1.58-1.5-1.65-3.99-.15-5.57l22.79-24.05c.75-.78,1.78-1.23,2.86-1.23h.02c1.09,0,2.13.46,2.87,1.25l22.38,24.05h0Z"/>
  <path class="st0" d="M272.86,1.16c1.54,1.54,1.54,4.03,0,5.57l-6.53,6.52c3.06,4.2,4.9,9.35,4.9,14.93,0,14-11.39,25.4-25.4,25.4-5.58,0-10.73-1.83-14.93-4.9l-6.52,6.53c-.77.77-1.78,1.16-2.79,1.16s-2.02-.39-2.79-1.16c-1.54-1.54-1.54-4.03,0-5.57l6.53-6.52c-3.06-4.2-4.9-9.35-4.9-14.93,0-14,11.4-25.4,25.4-25.4,5.58,0,10.73,1.83,14.93,4.89l6.53-6.53c1.54-1.54,4.03-1.54,5.57,0h0Z"/>
  <path class="st0" d="M350.58,28.12c0,14-11.39,25.4-25.4,25.4s-25.4-11.39-25.4-25.4,11.4-25.4,25.4-25.4,25.4,11.39,25.4,25.4ZM343.42,28.12c0-10.06-8.19-18.25-18.25-18.25s-18.24,8.19-18.24,18.25,8.18,18.25,18.24,18.25,18.25-8.19,18.25-18.25Z"/>
  <path class="st0" d="M431.05,43.18c0,2.18-1.77,3.94-3.94,3.94h-45.17c-2.18,0-3.94-1.76-3.94-3.94s1.77-3.94,3.94-3.94h45.17c2.18,0,3.94,1.76,3.94,3.94ZM396.74,17.62c0-4.29,3.49-7.78,7.78-7.78s7.78,3.49,7.78,7.78-3.49,7.78-7.78,7.78-7.78-3.49-7.78-7.78Z"/>
  <path class="st0" d="M464.15,32.82c-1.5,1.58-4,1.65-5.57.15-1.58-1.5-1.65-3.99-.15-5.57l22.78-24.05c.75-.78,1.78-1.23,2.86-1.23,1.06.18,2.14.45,2.89,1.25l22.38,24.05c1.48,1.59,1.39,4.09-.2,5.57-.76.71-1.72,1.06-2.68,1.06-1.06,0-2.11-.42-2.89-1.25l-19.52-20.97-19.89,20.99h0ZM510.4,49.3c0,2.18-1.77,3.94-3.94,3.94h-45.17c-2.18,0-3.94-1.76-3.94-3.94s1.77-3.94,3.94-3.94h45.17c2.18,0,3.94,1.76,3.94,3.94Z"/>
  <path class="st0" d="M543.5,32.82c-1.5,1.58-4,1.65-5.58.15-1.58-1.5-1.65-3.99-.15-5.57l22.78-24.05c.74-.78,1.78-1.23,2.86-1.23,1.06.18,2.14.45,2.89,1.25l22.38,24.05c1.48,1.59,1.39,4.09-.2,5.57-.76.71-1.72,1.06-2.68,1.06-1.06,0-2.11-.42-2.89-1.25l-19.52-20.97-19.9,20.99h0ZM589.75,49.3c0,2.18-1.77,3.94-3.94,3.94h-45.17c-2.18,0-3.94-1.76-3.94-3.94s1.77-3.94,3.94-3.94h45.17c2.18,0,3.94,1.76,3.94,3.94ZM563.22,24.22c4.29,0,7.78,3.49,7.78,7.78s-3.49,7.78-7.78,7.78-7.78-3.49-7.78-7.78,3.49-7.78,7.78-7.78Z"/>
  <path class="st0" d="M668.04,27.41c1.48,1.59,1.39,4.09-.2,5.58-.76.7-1.72,1.06-2.69,1.06-1.06,0-2.11-.42-2.89-1.25l-19.52-20.97-19.89,20.99c-1.5,1.58-4,1.65-5.57.15-1.58-1.5-1.65-3.99-.15-5.57l22.78-24.05c.75-.78,1.78-1.23,2.86-1.23h.02c1.09,0,2.13.46,2.87,1.25l22.38,24.05h0ZM650.35,45.47c0,4.29-3.49,7.78-7.78,7.78s-7.78-3.49-7.78-7.78,3.49-7.78,7.78-7.78,7.78,3.49,7.78,7.78Z"/>
  <path class="st0" d="M747.32,28.12c0,14-11.39,25.4-25.4,25.4s-25.4-11.39-25.4-25.4,11.4-25.4,25.4-25.4,25.4,11.39,25.4,25.4ZM740.16,28.12c0-10.06-8.19-18.25-18.25-18.25s-18.24,8.19-18.24,18.25,8.18,18.25,18.24,18.25,18.25-8.19,18.25-18.25ZM729.69,28.12c0,4.29-3.49,7.78-7.78,7.78s-7.78-3.49-7.78-7.78,3.49-7.78,7.78-7.78,7.78,3.49,7.78,7.78Z"/>
  <path class="st0" d="M828.8,6.14c-.12.16-.28.35-.44.51l-6.58,6.58v.04c3.08,4.18,4.89,9.34,4.89,14.9,0,7.02-2.84,13.36-7.45,17.94-4.57,4.61-10.92,7.49-17.94,7.49-1.42,0-2.76-.12-4.1-.35-1.97-.32-3.9-.87-5.72-1.66-1.81-.79-3.51-1.77-5.09-2.92h-.04l-6.51,6.55-.08.08c-.79.71-1.74,1.06-2.72,1.06-.75,0-1.5-.24-2.17-.63-.43-.28-.83-.67-1.14-1.1-.99-1.54-.83-3.55.43-4.93l6.62-6.58v-.04c-2.33-3.11-3.9-6.82-4.57-10.8-.24-1.34-.35-2.72-.35-4.1,0-5.24,1.62-10.13,4.38-14.19.47-.67.95-1.34,1.46-1.93.51-.63,1.06-1.26,1.66-1.81,4.61-4.61,10.92-7.45,17.94-7.45.71,0,1.38.04,2.09.08,1.38.12,2.68.35,3.98.67.67.16,1.3.31,1.93.55,1.26.43,2.44.95,3.59,1.54h.04c1.14.63,2.25,1.3,3.27,2.05h.04l6.58-6.58c.16-.16.35-.32.55-.43,1.5-.99,3.59-.83,4.93.51,1.34,1.34,1.5,3.43.51,4.97ZM811.06,12.85c-2.84-1.81-6.19-2.88-9.78-2.88-4.41,0-8.44,1.58-11.59,4.14-4.06,3.35-6.66,8.44-6.66,14.08,0,1.46.16,2.84.51,4.18.16.75.39,1.5.67,2.21.32.79.67,1.58,1.06,2.29.2.4.39.75.63,1.1l25.15-25.12ZM819.54,28.19c0-3.59-1.06-6.98-2.88-9.82l-25.15,25.19c2.84,1.81,6.15,2.88,9.78,2.88,10.05,0,18.26-8.2,18.26-18.25Z"/>
</svg>