<?xml version="1.0" encoding="UTF-8"?>
<svg id="Layer_1" xmlns="http://www.w3.org/2000/svg" version="1.1" viewBox="0 0 828.15 58.79">
  <!-- Generator: Adobe Illustrator 30.3.0, SVG Export Plug-In . SVG Version: 2.1.1 Build 104)  -->
  <defs>
    <style>
      .st0 {
        fill: #010101;
      }
    </style>
  </defs>
  <path class="st0" d="M60.38,33.12v-6.9h52.68v6.9h-52.68Z"/>
  <g>
    <path class="st0" d="M7.56,22.13c5.05.09,7.65,3.93,7.65,7.68,0,3.75-2.59,7.6-7.56,7.69h-.09c-4.96-.09-7.56-3.93-7.56-7.69s2.6-7.59,7.57-7.68h0Z"/>
    <path class="st0" d="M193.6,41.27l-5.07,4.68-22.69-24.61-22.69,24.61-5.07-4.68,27.76-30.11,27.77,30.11Z"/>
    <path class="st0" d="M274.32,5.6l-9.12,9.12c8.58,11.69,4.96,24.64-2.67,32.26-4.52,4.52-10.93,7.65-17.83,7.65-4.73,0-9.68-1.5-14.43-4.99l-9.12,9.12-5.56-5.59,9.13-9.13c-8.58-11.78-4.96-24.66,2.64-32.26,7.63-7.63,20.58-11.25,32.27-2.65l9.14-9.14,5.56,5.59h0Z"/>
    <path class="st0" d="M324.08,4.68c11.66,0,24.48,7.76,25.06,24.79,0,13.94-11.25,25.19-25.07,25.19s-25.07-11.25-25.07-25.07c.59-17.15,13.41-24.91,25.07-24.91h0ZM324.07,47.77c10.02,0,18.17-8.15,18.17-18.17-.43-12.4-9.43-18.01-18.17-18.01-8.73,0-17.74,5.61-18.17,18.13,0,9.9,8.15,18.05,18.17,18.05h0Z"/>
    <path class="st0" d="M376.85,47.76v-6.9h52.68v6.9h-52.68ZM394.52,18.33c0-4.78,3.89-8.67,8.67-8.67s8.67,3.89,8.67,8.67-3.89,8.67-8.67,8.67-8.67-3.89-8.67-8.67Z"/>
    <path class="st0" d="M459.61,37.9l-5.07-4.68,27.77-30.1,27.76,30.1-5.07,4.68-22.69-24.6-22.7,24.6ZM455.96,55.32v-6.9h52.68v6.9h-52.68Z"/>
    <path class="st0" d="M538.73,37.9l-5.07-4.68,27.77-30.1,27.76,30.1-5.07,4.68-22.69-24.6-22.7,24.6ZM535.08,55.32v-6.9h52.68v6.9h-52.68ZM561.38,26.82c5.05.09,7.65,3.93,7.65,7.68s-2.6,7.6-7.57,7.68h-.09c-4.96-.09-7.56-3.93-7.56-7.68s2.6-7.6,7.56-7.68Z"/>
    <path class="st0" d="M668.3,32.79l-5.07,4.68-22.69-24.6-22.7,24.6-5.07-4.68,27.77-30.1,27.77,30.1ZM648.15,47.6c0,3.75-2.6,7.6-7.57,7.68h-.09c-4.96-.09-7.56-3.93-7.56-7.68s2.6-7.6,7.56-7.68c5.05.09,7.65,3.93,7.65,7.68Z"/>
    <path class="st0" d="M719.66,4.68c11.66,0,24.48,7.76,25.06,24.79,0,13.94-11.25,25.19-25.07,25.19s-25.07-11.25-25.07-25.07c.59-17.15,13.41-24.91,25.07-24.91h0ZM719.65,47.77c10.02,0,18.17-8.15,18.17-18.17-.42-12.4-9.43-18.01-18.17-18.01-8.73,0-17.74,5.61-18.17,18.13,0,9.9,8.15,18.05,18.17,18.05h0ZM727.26,29.59c0,3.75-2.59,7.6-7.56,7.69h-.09c-4.97-.09-7.56-3.93-7.56-7.69s2.6-7.59,7.56-7.68c5.05.09,7.65,3.93,7.65,7.68Z"/>
    <path class="st0" d="M819,14.75c1.3,1.77,2.33,3.59,3.11,5.44.12.28.24.55.31.87,2.21,5.8,1.89,11.59-.08,16.64-1.3,3.55-3.43,6.74-5.99,9.31-2.21,2.21-4.89,4.1-7.85,5.44-.04.04-.12.04-.2.08-3,1.34-6.31,2.13-9.78,2.13-4.42,0-9.03-1.3-13.45-4.26-.31-.24-.63-.43-.95-.67,0-.04-.04-.04-.04-.04l-9.15,9.11-5.56-5.56v-.04l2.56-2.52,6.58-6.58c-.43-.59-.83-1.22-1.22-1.81-.28-.47-.55-.91-.79-1.38-3.27-5.99-3.63-12.11-2.05-17.55.12-.51.24-1.03.43-1.5,1.3-3.82,3.51-7.26,6.27-10.01s6.39-5.09,10.33-6.39c.32-.12.59-.2.91-.24,4.65-1.42,9.86-1.42,15.02.63.31.12.63.24.99.4,1.69.75,3.35,1.69,5.01,2.92l.12-.12h.04l6.43-6.43,2.52-2.56,5.6,5.6-2.56,2.52-6.58,6.58ZM783.47,39.15l25.04-25.04c-1.1-.71-2.17-1.26-3.27-1.73h-.04c-2.13-.91-4.26-1.3-6.31-1.3-1.93,0-3.86.36-5.64,1.03-2.72.95-5.2,2.6-7.22,4.61-2.05,2.05-3.67,4.53-4.61,7.29-1.34,3.79-1.38,8.12.59,12.42.36.91.87,1.81,1.46,2.72ZM814.23,19.52l-25.15,25.15c2.8,1.81,6.15,2.84,9.7,2.84,10.01,0,18.18-8.16,18.18-18.18-.12-3.94-1.14-7.18-2.72-9.82Z"/>
  </g>
</svg>